<?xml version="1.0" encoding="UTF-8"?>
<svg xmlns="http://www.w3.org/2000/svg" xmlns:xlink="http://www.w3.org/1999/xlink" width="64px" height="45px" viewBox="0 0 63 45" version="1.1">
<g id="surface1">
<path style=" stroke:none;fill-rule:nonzero;fill:rgb(48.627451%,52.54902%,55.294118%);fill-opacity:1;" d="M 40.035156 17.691406 L 40.414062 17.691406 L 40.414062 20.277344 L 41.515625 19.210938 L 42.097656 19.210938 L 40.933594 20.324219 L 42.210938 21.660156 L 41.628906 21.660156 L 40.4375 20.367188 L 40.4375 21.660156 L 40.035156 21.660156 Z M 40.035156 17.691406 "/>
<path style=" stroke:none;fill-rule:nonzero;fill:rgb(48.627451%,52.54902%,55.294118%);fill-opacity:1;" d="M 31.125 19.167969 L 31.507812 19.167969 L 31.507812 19.574219 C 31.523438 19.527344 31.550781 19.488281 31.582031 19.449219 C 31.59375 19.429688 31.605469 19.414062 31.621094 19.394531 C 31.664062 19.347656 31.730469 19.28125 31.800781 19.234375 C 31.832031 19.210938 31.871094 19.195312 31.910156 19.179688 C 31.949219 19.160156 31.988281 19.144531 32.023438 19.121094 C 32.113281 19.097656 32.203125 19.074219 32.292969 19.074219 C 32.425781 19.074219 32.539062 19.097656 32.628906 19.121094 C 32.71875 19.144531 32.785156 19.1875 32.855469 19.234375 C 32.921875 19.28125 32.964844 19.324219 32.988281 19.394531 C 33 19.414062 33.015625 19.4375 33.03125 19.460938 C 33.050781 19.484375 33.066406 19.507812 33.078125 19.527344 C 33.167969 19.394531 33.28125 19.28125 33.390625 19.1875 C 33.503906 19.097656 33.660156 19.074219 33.839844 19.074219 C 34.019531 19.074219 34.15625 19.097656 34.265625 19.144531 C 34.378906 19.1875 34.46875 19.257812 34.558594 19.347656 C 34.625 19.4375 34.691406 19.550781 34.714844 19.664062 C 34.738281 19.800781 34.761719 19.9375 34.761719 20.097656 L 34.761719 21.570312 L 34.355469 21.570312 L 34.355469 20.117188 C 34.355469 20.027344 34.355469 19.960938 34.335938 19.871094 C 34.3125 19.777344 34.289062 19.710938 34.246094 19.664062 C 34.199219 19.597656 34.132812 19.550781 34.066406 19.507812 C 34 19.460938 33.886719 19.4375 33.773438 19.4375 C 33.699219 19.4375 33.640625 19.453125 33.570312 19.472656 L 33.546875 19.476562 L 33.527344 19.484375 L 33.324219 19.621094 C 33.257812 19.6875 33.210938 19.753906 33.191406 19.847656 C 33.167969 19.9375 33.144531 20.027344 33.144531 20.140625 L 33.144531 21.546875 L 32.742188 21.546875 L 32.742188 20.164062 C 32.742188 19.890625 32.695312 19.710938 32.628906 19.597656 C 32.5625 19.484375 32.425781 19.4375 32.269531 19.4375 C 32.136719 19.4375 32.023438 19.460938 31.933594 19.507812 C 31.84375 19.550781 31.753906 19.621094 31.710938 19.710938 C 31.640625 19.800781 31.597656 19.890625 31.574219 20.003906 C 31.554688 20.117188 31.53125 20.253906 31.53125 20.390625 L 31.53125 21.570312 L 31.125 21.570312 Z M 31.125 19.167969 "/>
<path style=" stroke:none;fill-rule:evenodd;fill:rgb(48.627451%,52.54902%,55.294118%);fill-opacity:1;" d="M 35.5 19.507812 C 35.636719 19.371094 35.769531 19.28125 35.949219 19.210938 C 36.128906 19.144531 36.285156 19.121094 36.46875 19.121094 C 36.824219 19.121094 37.074219 19.210938 37.25 19.371094 C 37.410156 19.550781 37.5 19.800781 37.5 20.140625 L 37.5 21.410156 C 37.5 21.445312 37.503906 21.480469 37.511719 21.511719 C 37.515625 21.546875 37.519531 21.582031 37.519531 21.613281 L 37.140625 21.613281 C 37.117188 21.570312 37.117188 21.5 37.117188 21.433594 L 37.117188 21.253906 C 37.027344 21.386719 36.9375 21.480469 36.804688 21.570312 C 36.667969 21.660156 36.511719 21.683594 36.332031 21.683594 C 36.199219 21.683594 36.085938 21.660156 35.972656 21.636719 C 35.859375 21.617188 35.769531 21.570312 35.679688 21.503906 C 35.601562 21.441406 35.558594 21.382812 35.5 21.304688 L 35.480469 21.277344 C 35.433594 21.183594 35.410156 21.070312 35.410156 20.957031 C 35.410156 20.753906 35.457031 20.59375 35.570312 20.480469 C 35.679688 20.367188 35.792969 20.277344 35.949219 20.230469 C 36.109375 20.1875 36.265625 20.140625 36.445312 20.117188 C 36.625 20.097656 36.78125 20.097656 36.9375 20.097656 L 37.09375 20.097656 L 37.09375 20.027344 C 37.09375 19.847656 37.050781 19.710938 36.9375 19.621094 C 36.824219 19.53125 36.691406 19.484375 36.488281 19.484375 C 36.355469 19.484375 36.21875 19.507812 36.109375 19.554688 C 35.972656 19.597656 35.859375 19.667969 35.769531 19.757812 Z M 36.667969 20.457031 C 36.398438 20.457031 36.195312 20.503906 36.0625 20.570312 C 35.90625 20.640625 35.839844 20.777344 35.839844 20.933594 C 35.839844 21.09375 35.882812 21.207031 35.996094 21.253906 C 36.109375 21.320312 36.21875 21.34375 36.375 21.34375 C 36.488281 21.34375 36.601562 21.320312 36.691406 21.273438 C 36.78125 21.230469 36.847656 21.183594 36.914062 21.117188 C 36.984375 21.046875 37.027344 20.980469 37.050781 20.890625 C 37.070312 20.800781 37.09375 20.707031 37.09375 20.59375 L 37.09375 20.4375 L 36.667969 20.4375 Z M 36.667969 20.457031 "/>
<path style=" stroke:none;fill-rule:nonzero;fill:rgb(48.627451%,52.54902%,55.294118%);fill-opacity:1;" d="M 38.195312 21.570312 L 38.597656 21.570312 L 38.597656 20.390625 C 38.597656 20.117188 38.644531 19.890625 38.753906 19.734375 C 38.867188 19.574219 39.046875 19.484375 39.292969 19.484375 C 39.382812 19.484375 39.449219 19.484375 39.519531 19.507812 L 39.539062 19.097656 C 39.515625 19.085938 39.503906 19.082031 39.492188 19.078125 C 39.484375 19.074219 39.472656 19.074219 39.449219 19.074219 L 39.359375 19.074219 C 39.269531 19.074219 39.179688 19.097656 39.089844 19.121094 C 39.058594 19.144531 39.019531 19.160156 38.980469 19.179688 C 38.941406 19.195312 38.902344 19.210938 38.867188 19.234375 C 38.800781 19.28125 38.734375 19.324219 38.6875 19.394531 C 38.675781 19.414062 38.660156 19.429688 38.648438 19.449219 C 38.617188 19.492188 38.589844 19.527344 38.574219 19.574219 L 38.574219 19.167969 L 38.195312 19.167969 Z M 38.195312 21.570312 "/>
<path style=" stroke:none;fill-rule:evenodd;fill:rgb(48.627451%,52.54902%,55.294118%);fill-opacity:1;" d="M 44.296875 21.570312 C 44.476562 21.5 44.632812 21.367188 44.769531 21.183594 L 44.433594 20.957031 C 44.34375 21.070312 44.230469 21.160156 44.117188 21.230469 C 43.984375 21.296875 43.847656 21.320312 43.667969 21.320312 C 43.558594 21.320312 43.445312 21.296875 43.355469 21.253906 C 43.265625 21.230469 43.175781 21.160156 43.109375 21.09375 C 43.039062 21.027344 42.996094 20.933594 42.949219 20.84375 C 42.90625 20.753906 42.882812 20.664062 42.882812 20.550781 L 44.835938 20.550781 L 44.835938 20.414062 C 44.835938 20.210938 44.789062 20.027344 44.746094 19.871094 C 44.699219 19.710938 44.613281 19.574219 44.519531 19.460938 C 44.429688 19.347656 44.296875 19.28125 44.164062 19.210938 C 44.003906 19.144531 43.871094 19.121094 43.691406 19.121094 C 43.511719 19.121094 43.355469 19.144531 43.195312 19.210938 C 43.0625 19.28125 42.929688 19.371094 42.816406 19.484375 C 42.703125 19.597656 42.613281 19.734375 42.546875 19.890625 C 42.480469 20.050781 42.457031 20.230469 42.457031 20.414062 C 42.457031 20.59375 42.480469 20.753906 42.546875 20.914062 C 42.613281 21.070312 42.679688 21.207031 42.792969 21.320312 C 42.90625 21.433594 43.019531 21.523438 43.175781 21.59375 C 43.332031 21.636719 43.511719 21.683594 43.691406 21.683594 C 43.914062 21.683594 44.117188 21.636719 44.296875 21.570312 Z M 44.207031 19.6875 C 44.34375 19.800781 44.410156 19.980469 44.410156 20.1875 L 42.90625 20.1875 C 42.929688 19.980469 43.019531 19.824219 43.152344 19.6875 C 43.289062 19.574219 43.46875 19.507812 43.691406 19.507812 C 43.914062 19.507812 44.074219 19.550781 44.207031 19.6875 Z M 44.207031 19.6875 "/>
<path style=" stroke:none;fill-rule:nonzero;fill:rgb(48.627451%,52.54902%,55.294118%);fill-opacity:1;" d="M 46.070312 19.527344 L 46.070312 20.980469 C 46.070312 21.046875 46.09375 21.117188 46.113281 21.160156 C 46.136719 21.207031 46.183594 21.25 46.226562 21.273438 C 46.273438 21.296875 46.339844 21.320312 46.429688 21.320312 C 46.496094 21.320312 46.542969 21.320312 46.609375 21.296875 C 46.640625 21.285156 46.671875 21.273438 46.699219 21.261719 C 46.726562 21.25 46.753906 21.242188 46.789062 21.230469 L 46.8125 21.589844 C 46.742188 21.613281 46.675781 21.636719 46.585938 21.660156 C 46.496094 21.683594 46.429688 21.683594 46.339844 21.683594 C 46.203125 21.683594 46.070312 21.660156 46.003906 21.613281 C 45.914062 21.570312 45.84375 21.523438 45.800781 21.457031 C 45.753906 21.386719 45.710938 21.296875 45.710938 21.207031 C 45.6875 21.09375 45.6875 20.980469 45.6875 20.867188 L 45.6875 19.527344 L 45.171875 19.527344 L 45.171875 19.1875 L 45.6875 19.1875 L 45.6875 18.484375 L 46.09375 18.484375 L 46.09375 19.1875 L 46.808594 19.1875 L 46.808594 19.527344 Z M 46.070312 19.527344 "/>
<path style=" stroke:none;fill-rule:nonzero;fill:rgb(48.627451%,52.54902%,55.294118%);fill-opacity:1;" d="M 47.328125 18.03125 C 47.257812 18.078125 47.238281 18.144531 47.238281 18.238281 C 47.238281 18.328125 47.257812 18.394531 47.328125 18.441406 C 47.371094 18.507812 47.460938 18.53125 47.527344 18.53125 C 47.59375 18.53125 47.6875 18.488281 47.730469 18.441406 C 47.796875 18.394531 47.820312 18.328125 47.820312 18.238281 C 47.820312 18.167969 47.796875 18.101562 47.730469 18.03125 C 47.6875 17.964844 47.617188 17.941406 47.527344 17.941406 C 47.460938 17.941406 47.394531 17.964844 47.328125 18.03125 Z M 47.328125 18.03125 "/>
<path style=" stroke:none;fill-rule:nonzero;fill:rgb(48.627451%,52.54902%,55.294118%);fill-opacity:1;" d="M 47.730469 21.636719 L 47.730469 19.1875 L 47.328125 19.1875 L 47.328125 21.636719 Z M 47.730469 21.636719 "/>
<path style=" stroke:none;fill-rule:nonzero;fill:rgb(48.627451%,52.54902%,55.294118%);fill-opacity:1;" d="M 48.539062 19.757812 L 48.539062 19.167969 L 48.917969 19.167969 L 48.917969 19.574219 C 48.933594 19.527344 48.960938 19.488281 48.992188 19.449219 C 49.003906 19.429688 49.019531 19.414062 49.03125 19.394531 C 49.078125 19.324219 49.144531 19.28125 49.210938 19.234375 C 49.246094 19.210938 49.285156 19.195312 49.324219 19.179688 C 49.363281 19.160156 49.402344 19.144531 49.4375 19.121094 C 49.527344 19.097656 49.613281 19.074219 49.703125 19.074219 C 49.863281 19.074219 49.996094 19.097656 50.109375 19.144531 C 50.222656 19.1875 50.3125 19.257812 50.402344 19.347656 C 50.46875 19.4375 50.535156 19.527344 50.558594 19.664062 C 50.601562 19.777344 50.601562 19.914062 50.601562 20.074219 L 50.601562 21.570312 L 50.199219 21.570312 L 50.199219 20.09375 C 50.199219 19.890625 50.152344 19.734375 50.0625 19.621094 C 49.972656 19.507812 49.839844 19.4375 49.636719 19.4375 C 49.503906 19.4375 49.390625 19.460938 49.300781 19.507812 C 49.210938 19.550781 49.121094 19.621094 49.078125 19.710938 C 49.007812 19.800781 48.964844 19.890625 48.941406 20.003906 C 48.917969 20.117188 48.898438 20.253906 48.898438 20.390625 L 48.898438 21.570312 L 48.492188 21.570312 L 48.492188 19.753906 L 48.539062 19.753906 Z M 48.539062 19.757812 "/>
<path style=" stroke:none;fill-rule:evenodd;fill:rgb(48.627451%,52.54902%,55.294118%);fill-opacity:1;" d="M 53.472656 22.542969 C 53.699219 22.316406 53.8125 21.976562 53.8125 21.523438 L 53.8125 19.1875 L 53.40625 19.1875 L 53.40625 19.597656 C 53.363281 19.527344 53.316406 19.460938 53.25 19.394531 C 53.214844 19.339844 53.152344 19.300781 53.09375 19.265625 C 53.078125 19.253906 53.0625 19.242188 53.046875 19.234375 C 52.957031 19.1875 52.890625 19.164062 52.800781 19.144531 C 52.710938 19.121094 52.644531 19.121094 52.554688 19.121094 C 52.375 19.121094 52.195312 19.144531 52.039062 19.210938 C 51.882812 19.257812 51.746094 19.347656 51.636719 19.460938 C 51.523438 19.574219 51.433594 19.710938 51.367188 19.867188 C 51.300781 20.027344 51.277344 20.207031 51.277344 20.414062 C 51.277344 20.59375 51.296875 20.753906 51.367188 20.910156 C 51.433594 21.046875 51.523438 21.207031 51.636719 21.296875 C 51.746094 21.386719 51.882812 21.476562 52.039062 21.546875 C 52.195312 21.613281 52.375 21.636719 52.554688 21.636719 C 52.710938 21.636719 52.867188 21.59375 53.027344 21.523438 C 53.183594 21.457031 53.316406 21.34375 53.40625 21.183594 L 53.40625 21.5 C 53.40625 21.613281 53.386719 21.75 53.363281 21.863281 C 53.339844 21.976562 53.316406 22.089844 53.226562 22.183594 C 53.136719 22.273438 53.046875 22.363281 52.9375 22.410156 C 52.824219 22.476562 52.667969 22.5 52.488281 22.5 C 52.308594 22.5 52.128906 22.453125 51.992188 22.386719 C 51.859375 22.320312 51.722656 22.207031 51.589844 22.070312 L 51.296875 22.410156 C 51.453125 22.589844 51.636719 22.703125 51.835938 22.773438 C 52.039062 22.839844 52.238281 22.886719 52.488281 22.886719 C 52.914062 22.882812 53.25 22.769531 53.472656 22.542969 Z M 51.769531 20.753906 C 51.722656 20.664062 51.703125 20.550781 51.703125 20.414062 C 51.703125 20.34375 51.707031 20.277344 51.714844 20.214844 C 51.71875 20.160156 51.722656 20.105469 51.722656 20.050781 C 51.769531 19.9375 51.835938 19.847656 51.902344 19.757812 C 51.972656 19.664062 52.0625 19.597656 52.171875 19.550781 C 52.285156 19.507812 52.398438 19.484375 52.53125 19.484375 C 52.667969 19.484375 52.777344 19.507812 52.890625 19.550781 C 53.003906 19.597656 53.09375 19.644531 53.160156 19.734375 C 53.25 19.824219 53.292969 19.914062 53.339844 20.027344 C 53.382812 20.140625 53.40625 20.253906 53.40625 20.390625 C 53.40625 20.480469 53.378906 20.585938 53.355469 20.667969 C 53.351562 20.691406 53.34375 20.710938 53.339844 20.730469 C 53.316406 20.820312 53.25 20.914062 53.183594 21.003906 C 53.113281 21.09375 53.003906 21.160156 52.914062 21.207031 C 52.824219 21.253906 52.6875 21.273438 52.554688 21.273438 C 52.441406 21.273438 52.328125 21.253906 52.21875 21.207031 C 52.105469 21.160156 52.015625 21.09375 51.949219 21.027344 C 51.882812 20.957031 51.8125 20.867188 51.769531 20.753906 Z M 51.769531 20.753906 "/>
<path style=" stroke:none;fill-rule:nonzero;fill:rgb(48.627451%,52.54902%,55.294118%);fill-opacity:1;" d="M 32.855469 25.378906 C 32.765625 25.265625 32.675781 25.195312 32.585938 25.152344 C 32.496094 25.105469 32.382812 25.082031 32.25 25.082031 C 32.113281 25.082031 32 25.105469 31.890625 25.152344 C 31.777344 25.195312 31.710938 25.265625 31.640625 25.355469 C 31.574219 25.445312 31.53125 25.535156 31.484375 25.648438 C 31.441406 25.761719 31.441406 25.875 31.441406 26.011719 C 31.441406 26.148438 31.460938 26.261719 31.507812 26.375 C 31.550781 26.488281 31.597656 26.582031 31.664062 26.671875 C 31.730469 26.761719 31.820312 26.828125 31.910156 26.875 C 32 26.921875 32.113281 26.941406 32.246094 26.941406 C 32.515625 26.941406 32.71875 26.851562 32.855469 26.648438 L 33.144531 26.941406 C 33.03125 27.078125 32.898438 27.167969 32.742188 27.238281 C 32.585938 27.304688 32.425781 27.328125 32.246094 27.328125 C 32.070312 27.328125 31.886719 27.304688 31.730469 27.238281 C 31.574219 27.167969 31.441406 27.078125 31.328125 26.964844 C 31.214844 26.851562 31.125 26.714844 31.082031 26.558594 C 31.035156 26.398438 30.992188 26.238281 30.992188 26.035156 C 30.992188 25.855469 31.011719 25.671875 31.082031 25.515625 C 31.148438 25.355469 31.214844 25.21875 31.328125 25.105469 C 31.441406 24.992188 31.574219 24.902344 31.730469 24.835938 C 31.890625 24.765625 32.046875 24.746094 32.246094 24.746094 C 32.425781 24.746094 32.605469 24.765625 32.761719 24.835938 C 32.921875 24.902344 33.054688 24.992188 33.191406 25.128906 Z M 32.855469 25.378906 "/>
<path style=" stroke:none;fill-rule:nonzero;fill:rgb(48.627451%,52.54902%,55.294118%);fill-opacity:1;" d="M 34.066406 23.269531 L 33.660156 23.269531 L 33.660156 27.214844 L 34.066406 27.214844 Z M 34.066406 23.269531 "/>
<path style=" stroke:none;fill-rule:evenodd;fill:rgb(48.627451%,52.54902%,55.294118%);fill-opacity:1;" d="M 34.714844 25.988281 C 34.714844 25.808594 34.738281 25.628906 34.804688 25.46875 C 34.875 25.308594 34.964844 25.175781 35.074219 25.0625 C 35.1875 24.949219 35.324219 24.855469 35.480469 24.789062 C 35.636719 24.722656 35.816406 24.699219 35.996094 24.699219 C 36.175781 24.699219 36.355469 24.71875 36.511719 24.789062 C 36.667969 24.855469 36.804688 24.949219 36.914062 25.0625 C 37.027344 25.175781 37.117188 25.3125 37.183594 25.46875 C 37.25 25.628906 37.273438 25.808594 37.273438 25.988281 C 37.273438 26.171875 37.25 26.351562 37.183594 26.511719 C 37.117188 26.671875 37.027344 26.804688 36.914062 26.917969 C 36.804688 27.03125 36.667969 27.125 36.511719 27.191406 C 36.355469 27.257812 36.175781 27.28125 35.996094 27.28125 C 35.816406 27.28125 35.636719 27.257812 35.480469 27.191406 C 35.320312 27.125 35.1875 27.03125 35.074219 26.917969 C 34.964844 26.804688 34.875 26.667969 34.804688 26.511719 C 34.738281 26.351562 34.714844 26.171875 34.714844 25.988281 Z M 35.144531 25.988281 C 35.144531 26.125 35.164062 26.238281 35.210938 26.351562 C 35.253906 26.464844 35.300781 26.558594 35.390625 26.648438 C 35.480469 26.738281 35.546875 26.785156 35.660156 26.851562 C 35.769531 26.898438 35.882812 26.917969 36.019531 26.917969 C 36.152344 26.917969 36.265625 26.898438 36.375 26.851562 C 36.488281 26.804688 36.578125 26.738281 36.644531 26.648438 C 36.714844 26.558594 36.78125 26.464844 36.824219 26.351562 C 36.871094 26.238281 36.894531 26.125 36.894531 25.988281 C 36.894531 25.855469 36.871094 25.742188 36.824219 25.628906 C 36.78125 25.515625 36.734375 25.421875 36.644531 25.332031 C 36.589844 25.253906 36.511719 25.210938 36.421875 25.15625 L 36.390625 25.136719 L 36.375 25.128906 C 36.265625 25.0625 36.152344 25.0625 36.019531 25.0625 C 35.882812 25.0625 35.769531 25.082031 35.660156 25.128906 C 35.546875 25.175781 35.457031 25.242188 35.390625 25.332031 C 35.320312 25.425781 35.253906 25.515625 35.210938 25.628906 C 35.164062 25.742188 35.144531 25.855469 35.144531 25.988281 Z M 35.144531 25.988281 "/>
<path style=" stroke:none;fill-rule:nonzero;fill:rgb(48.627451%,52.54902%,55.294118%);fill-opacity:1;" d="M 40.035156 26.625 L 40.101562 26.625 L 40.101562 24.8125 L 39.699219 24.8125 L 39.699219 25.988281 C 39.699219 26.125 39.675781 26.261719 39.652344 26.375 C 39.628906 26.488281 39.585938 26.578125 39.519531 26.667969 C 39.472656 26.761719 39.382812 26.828125 39.292969 26.875 C 39.203125 26.917969 39.09375 26.941406 38.957031 26.941406 C 38.753906 26.941406 38.621094 26.875 38.53125 26.761719 C 38.441406 26.648438 38.398438 26.488281 38.398438 26.285156 L 38.398438 24.808594 L 37.992188 24.808594 L 37.992188 26.304688 C 37.992188 26.464844 37.992188 26.601562 38.039062 26.714844 C 38.058594 26.851562 38.128906 26.941406 38.195312 27.03125 C 38.285156 27.121094 38.375 27.191406 38.488281 27.234375 C 38.597656 27.28125 38.734375 27.304688 38.890625 27.304688 C 38.980469 27.304688 39.070312 27.28125 39.160156 27.257812 C 39.195312 27.234375 39.234375 27.21875 39.273438 27.203125 C 39.3125 27.183594 39.351562 27.167969 39.382812 27.144531 C 39.449219 27.101562 39.519531 27.03125 39.5625 26.988281 C 39.578125 26.964844 39.589844 26.949219 39.601562 26.929688 C 39.632812 26.890625 39.660156 26.851562 39.675781 26.804688 L 39.675781 27.214844 L 40.035156 27.214844 Z M 40.035156 26.625 "/>
<path style=" stroke:none;fill-rule:evenodd;fill:rgb(48.627451%,52.54902%,55.294118%);fill-opacity:1;" d="M 42.792969 26.785156 C 42.703125 26.917969 42.59375 27.03125 42.433594 27.144531 C 42.277344 27.238281 42.074219 27.28125 41.875 27.28125 C 41.695312 27.28125 41.539062 27.257812 41.402344 27.191406 C 41.246094 27.125 41.132812 27.03125 41.019531 26.917969 C 40.910156 26.804688 40.820312 26.667969 40.773438 26.511719 C 40.707031 26.351562 40.683594 26.195312 40.683594 25.988281 C 40.683594 25.785156 40.707031 25.628906 40.773438 25.46875 C 40.839844 25.308594 40.929688 25.175781 41.042969 25.0625 C 41.15625 24.949219 41.289062 24.855469 41.445312 24.789062 C 41.605469 24.722656 41.785156 24.699219 41.964844 24.699219 C 42.144531 24.699219 42.300781 24.742188 42.457031 24.8125 C 42.613281 24.878906 42.726562 24.992188 42.839844 25.128906 L 42.839844 23.269531 L 43.242188 23.269531 L 43.242188 27.214844 L 42.839844 27.214844 L 42.839844 26.785156 Z M 42.792969 25.988281 C 42.792969 25.855469 42.773438 25.742188 42.726562 25.628906 C 42.683594 25.515625 42.636719 25.421875 42.546875 25.332031 C 42.488281 25.253906 42.414062 25.210938 42.324219 25.15625 C 42.308594 25.148438 42.292969 25.136719 42.277344 25.128906 C 42.167969 25.082031 42.054688 25.0625 41.917969 25.0625 C 41.785156 25.0625 41.671875 25.082031 41.558594 25.128906 C 41.449219 25.175781 41.359375 25.242188 41.289062 25.332031 C 41.222656 25.425781 41.15625 25.515625 41.109375 25.628906 C 41.066406 25.742188 41.042969 25.855469 41.042969 25.992188 C 41.042969 26.125 41.066406 26.242188 41.109375 26.355469 C 41.15625 26.46875 41.203125 26.558594 41.289062 26.648438 C 41.378906 26.738281 41.449219 26.785156 41.558594 26.851562 C 41.671875 26.898438 41.785156 26.921875 41.917969 26.921875 C 42.054688 26.921875 42.167969 26.898438 42.277344 26.851562 C 42.390625 26.808594 42.480469 26.738281 42.546875 26.648438 C 42.613281 26.558594 42.683594 26.46875 42.726562 26.355469 C 42.769531 26.238281 42.792969 26.125 42.792969 25.988281 Z M 42.792969 25.988281 "/>
<path style=" stroke:none;fill-rule:nonzero;fill:rgb(7.843137%,62.745098%,86.27451%);fill-opacity:1;" d="M 14.546875 22.089844 C 14.703125 22.089844 14.859375 22.113281 14.859375 22.113281 L 14.859375 22.65625 C 14.859375 22.65625 14.703125 22.703125 14.546875 22.703125 C 14.320312 22.726562 14.207031 22.636719 14.207031 22.636719 L 14.140625 22.566406 C 14.121094 22.523438 14.097656 22.476562 14.097656 22.410156 C 14.097656 22.316406 14.140625 22.226562 14.207031 22.183594 C 14.207031 22.183594 14.296875 22.089844 14.546875 22.089844 Z M 14.546875 22.089844 "/>
<path style=" stroke:none;fill-rule:nonzero;fill:rgb(7.843137%,62.745098%,86.27451%);fill-opacity:1;" d="M 17.148438 21.386719 C 16.992188 21.386719 16.878906 21.457031 16.8125 21.570312 C 16.765625 21.636719 16.746094 21.726562 16.722656 21.839844 L 17.550781 21.839844 C 17.550781 21.726562 17.53125 21.636719 17.484375 21.570312 C 17.417969 21.457031 17.304688 21.386719 17.148438 21.386719 Z M 17.148438 21.386719 "/>
<path style=" stroke:none;fill-rule:nonzero;fill:rgb(7.843137%,62.745098%,86.27451%);fill-opacity:1;" d="M 21.523438 21.546875 C 21.589844 21.433594 21.703125 21.386719 21.859375 21.386719 C 22.015625 21.386719 22.128906 21.457031 22.195312 21.546875 C 22.261719 21.660156 22.308594 21.820312 22.308594 22.023438 C 22.308594 22.226562 22.261719 22.386719 22.195312 22.5 C 22.128906 22.613281 22.015625 22.65625 21.859375 22.65625 C 21.703125 22.65625 21.589844 22.613281 21.523438 22.5 C 21.457031 22.386719 21.410156 22.226562 21.410156 22.023438 C 21.410156 21.820312 21.457031 21.660156 21.523438 21.546875 Z M 21.523438 21.546875 "/>
<path style=" stroke:none;fill-rule:nonzero;fill:rgb(7.843137%,62.745098%,86.27451%);fill-opacity:1;" d="M 26.527344 21.386719 C 26.371094 21.386719 26.257812 21.457031 26.191406 21.570312 C 26.144531 21.636719 26.125 21.726562 26.101562 21.839844 L 26.929688 21.839844 C 26.929688 21.726562 26.910156 21.636719 26.863281 21.570312 C 26.796875 21.457031 26.683594 21.386719 26.527344 21.386719 Z M 26.527344 21.386719 "/>
<path style=" stroke:none;fill-rule:evenodd;fill:rgb(7.843137%,62.745098%,86.27451%);fill-opacity:1;" d="M 23.25 17.648438 C 23.789062 17.398438 24.394531 17.261719 25.023438 17.261719 C 27.425781 17.261719 29.375 19.257812 29.355469 21.707031 C 29.355469 24.152344 27.402344 26.148438 25 26.148438 C 24.710938 26.148438 24.417969 26.101562 24.148438 26.058594 C 23.609375 27.054688 22.554688 27.710938 21.367188 27.710938 C 20.871094 27.710938 20.402344 27.597656 19.976562 27.394531 C 19.414062 28.710938 18.136719 29.640625 16.632812 29.640625 C 15.0625 29.640625 13.738281 28.640625 13.222656 27.238281 C 12.996094 27.28125 12.773438 27.304688 12.527344 27.304688 C 10.664062 27.304688 9.160156 25.761719 9.160156 23.859375 C 9.160156 22.589844 9.832031 21.457031 10.84375 20.867188 C 10.640625 20.367188 10.527344 19.847656 10.527344 19.28125 C 10.527344 17.082031 12.277344 15.3125 14.457031 15.3125 C 15.734375 15.3125 16.855469 15.925781 17.574219 16.875 C 18.226562 16.195312 19.121094 15.765625 20.132812 15.765625 C 21.457031 15.765625 22.621094 16.535156 23.25 17.648438 Z M 12.816406 23.019531 C 13.242188 23.019531 13.492188 22.792969 13.492188 22.429688 C 13.492188 22.089844 13.199219 21.953125 12.953125 21.933594 L 12.90625 21.910156 C 12.703125 21.839844 12.523438 21.773438 12.523438 21.636719 C 12.523438 21.523438 12.636719 21.433594 12.792969 21.433594 C 12.953125 21.433594 13.175781 21.5 13.3125 21.570312 C 13.3125 21.570312 13.332031 21.589844 13.355469 21.546875 C 13.378906 21.523438 13.445312 21.34375 13.445312 21.320312 C 13.445312 21.296875 13.445312 21.273438 13.421875 21.273438 C 13.289062 21.183594 13.0625 21.117188 12.839844 21.117188 L 12.796875 21.117188 C 12.414062 21.117188 12.144531 21.34375 12.144531 21.683594 C 12.144531 22.023438 12.4375 22.160156 12.707031 22.226562 L 12.75 22.25 C 12.953125 22.292969 13.132812 22.363281 13.132812 22.5 C 13.132812 22.636719 13.019531 22.726562 12.839844 22.726562 C 12.773438 22.726562 12.546875 22.726562 12.300781 22.566406 C 12.289062 22.554688 12.28125 22.550781 12.269531 22.542969 C 12.257812 22.539062 12.246094 22.53125 12.234375 22.523438 C 12.234375 22.523438 12.210938 22.5 12.1875 22.542969 L 12.097656 22.769531 C 12.078125 22.792969 12.097656 22.816406 12.097656 22.816406 C 12.121094 22.828125 12.136719 22.839844 12.15625 22.851562 C 12.171875 22.863281 12.1875 22.871094 12.210938 22.882812 C 12.414062 22.996094 12.617188 23.019531 12.816406 23.019531 Z M 15.105469 22.90625 C 15.152344 22.90625 15.195312 22.882812 15.195312 22.882812 C 15.21875 22.882812 15.21875 22.839844 15.195312 22.839844 L 15.195312 21.75 C 15.195312 21.523438 15.152344 21.34375 15.015625 21.230469 C 14.90625 21.117188 14.703125 21.070312 14.476562 21.070312 C 14.386719 21.070312 14.253906 21.070312 14.164062 21.09375 C 14.164062 21.09375 13.917969 21.140625 13.804688 21.230469 C 13.804688 21.230469 13.78125 21.25 13.804688 21.273438 L 13.894531 21.5 C 13.917969 21.523438 13.9375 21.523438 13.9375 21.523438 L 13.960938 21.523438 C 14.1875 21.410156 14.476562 21.410156 14.476562 21.410156 C 14.613281 21.410156 14.703125 21.433594 14.769531 21.476562 C 14.835938 21.523438 14.859375 21.589844 14.859375 21.75 L 14.859375 21.796875 C 14.746094 21.773438 14.65625 21.773438 14.65625 21.773438 L 14.476562 21.773438 C 14.367188 21.773438 14.273438 21.796875 14.1875 21.820312 C 14.097656 21.839844 14.007812 21.886719 13.9375 21.933594 C 13.847656 22 13.804688 22.066406 13.757812 22.136719 C 13.714844 22.203125 13.691406 22.296875 13.691406 22.410156 C 13.691406 22.523438 13.691406 22.613281 13.738281 22.679688 C 13.78125 22.75 13.828125 22.816406 13.894531 22.863281 C 13.960938 22.929688 14.050781 22.953125 14.140625 22.976562 C 14.230469 22.996094 14.34375 22.996094 14.457031 22.996094 C 14.566406 22.996094 14.703125 22.996094 14.816406 22.976562 C 14.863281 22.964844 14.917969 22.949219 14.964844 22.9375 C 15.027344 22.921875 15.082031 22.90625 15.105469 22.90625 Z M 15.957031 22.976562 C 15.957031 22.976562 15.980469 22.953125 15.980469 22.929688 L 15.980469 20.390625 C 15.980469 20.367188 15.980469 20.34375 15.957031 20.34375 L 15.644531 20.34375 C 15.644531 20.34375 15.621094 20.367188 15.621094 20.390625 L 15.621094 22.929688 C 15.621094 22.953125 15.621094 22.976562 15.644531 22.976562 Z M 17.886719 22.136719 C 17.886719 22.136719 17.933594 22.136719 17.933594 22.113281 C 17.933594 22.109375 17.933594 22.105469 17.933594 22.097656 C 17.9375 22.042969 17.949219 21.835938 17.886719 21.59375 C 17.84375 21.480469 17.777344 21.367188 17.730469 21.320312 C 17.664062 21.230469 17.574219 21.160156 17.507812 21.140625 C 17.417969 21.09375 17.304688 21.070312 17.171875 21.070312 C 17.035156 21.070312 16.902344 21.09375 16.789062 21.140625 C 16.675781 21.183594 16.585938 21.253906 16.519531 21.34375 C 16.453125 21.433594 16.40625 21.546875 16.363281 21.660156 C 16.339844 21.773438 16.316406 21.910156 16.316406 22.046875 C 16.316406 22.183594 16.316406 22.320312 16.363281 22.433594 C 16.40625 22.546875 16.472656 22.636719 16.542969 22.726562 C 16.609375 22.816406 16.722656 22.886719 16.832031 22.929688 C 16.945312 22.976562 17.101562 23 17.257812 23 C 17.597656 23 17.777344 22.929688 17.84375 22.886719 C 17.84375 22.878906 17.847656 22.871094 17.847656 22.867188 C 17.851562 22.855469 17.859375 22.847656 17.84375 22.816406 L 17.777344 22.589844 C 17.753906 22.546875 17.730469 22.566406 17.730469 22.566406 C 17.664062 22.613281 17.527344 22.660156 17.257812 22.660156 C 17.082031 22.660156 16.945312 22.613281 16.855469 22.523438 C 16.765625 22.457031 16.722656 22.320312 16.722656 22.136719 Z M 18.234375 22.828125 C 18.253906 22.839844 18.269531 22.851562 18.292969 22.863281 C 18.460938 22.957031 18.628906 22.988281 18.808594 23.019531 C 18.84375 23.027344 18.882812 23.035156 18.921875 23.042969 C 19.347656 23.042969 19.59375 22.816406 19.59375 22.453125 C 19.59375 22.113281 19.300781 22 19.03125 21.910156 L 18.988281 21.886719 C 18.785156 21.820312 18.605469 21.75 18.605469 21.613281 C 18.605469 21.5 18.71875 21.410156 18.875 21.410156 C 19.03125 21.410156 19.257812 21.476562 19.390625 21.546875 C 19.390625 21.546875 19.414062 21.570312 19.4375 21.523438 C 19.457031 21.5 19.527344 21.320312 19.527344 21.296875 C 19.527344 21.273438 19.527344 21.25 19.503906 21.25 C 19.371094 21.160156 19.144531 21.09375 18.921875 21.09375 L 18.875 21.09375 C 18.496094 21.09375 18.226562 21.320312 18.226562 21.660156 C 18.226562 22 18.515625 22.136719 18.785156 22.203125 L 18.832031 22.226562 C 19.03125 22.273438 19.210938 22.339844 19.210938 22.476562 C 19.210938 22.613281 19.101562 22.703125 18.921875 22.703125 C 18.855469 22.703125 18.628906 22.703125 18.382812 22.542969 C 18.371094 22.53125 18.359375 22.527344 18.347656 22.519531 C 18.335938 22.515625 18.328125 22.511719 18.316406 22.5 C 18.316406 22.5 18.292969 22.476562 18.269531 22.519531 L 18.179688 22.746094 C 18.15625 22.769531 18.179688 22.792969 18.179688 22.792969 C 18.203125 22.804688 18.21875 22.816406 18.234375 22.828125 Z M 20.894531 21.433594 C 20.894531 21.433594 20.941406 21.433594 20.941406 21.386719 L 20.984375 21.183594 C 20.984375 21.160156 20.964844 21.136719 20.941406 21.136719 L 20.515625 21.136719 C 20.515625 21.117188 20.535156 21.003906 20.582031 20.867188 C 20.601562 20.796875 20.648438 20.753906 20.671875 20.730469 C 20.6875 20.695312 20.707031 20.6875 20.734375 20.675781 C 20.742188 20.671875 20.75 20.667969 20.761719 20.664062 C 20.804688 20.640625 20.851562 20.640625 20.894531 20.640625 L 20.984375 20.640625 C 21.03125 20.664062 21.050781 20.664062 21.050781 20.664062 C 21.074219 20.664062 21.097656 20.664062 21.097656 20.640625 L 21.1875 20.390625 C 21.1875 20.367188 21.164062 20.34375 21.164062 20.34375 C 21.144531 20.34375 21.125 20.339844 21.109375 20.332031 C 21.09375 20.328125 21.074219 20.324219 21.054688 20.324219 C 21.007812 20.300781 20.964844 20.300781 20.894531 20.300781 C 20.695312 20.300781 20.515625 20.367188 20.402344 20.480469 C 20.289062 20.617188 20.222656 20.777344 20.179688 21.027344 L 20.15625 21.117188 L 19.886719 21.117188 C 19.886719 21.117188 19.839844 21.117188 19.839844 21.160156 L 19.796875 21.410156 C 19.796875 21.433594 19.820312 21.457031 19.839844 21.457031 L 20.109375 21.457031 L 19.839844 22.929688 C 19.820312 23.042969 19.796875 23.15625 19.773438 23.226562 C 19.730469 23.292969 19.707031 23.339844 19.683594 23.382812 C 19.640625 23.429688 19.617188 23.453125 19.570312 23.476562 C 19.527344 23.496094 19.480469 23.496094 19.4375 23.496094 L 19.347656 23.496094 C 19.335938 23.496094 19.324219 23.492188 19.3125 23.484375 C 19.304688 23.480469 19.292969 23.476562 19.28125 23.476562 C 19.28125 23.476562 19.257812 23.476562 19.234375 23.496094 C 19.210938 23.519531 19.144531 23.722656 19.144531 23.746094 C 19.144531 23.769531 19.144531 23.792969 19.167969 23.792969 C 19.191406 23.792969 19.207031 23.796875 19.222656 23.804688 C 19.242188 23.808594 19.257812 23.816406 19.28125 23.816406 C 19.347656 23.835938 19.414062 23.835938 19.457031 23.835938 C 19.570312 23.835938 19.660156 23.816406 19.75 23.792969 C 19.839844 23.746094 19.90625 23.699219 19.976562 23.632812 C 20.042969 23.542969 20.085938 23.472656 20.132812 23.359375 C 20.175781 23.246094 20.222656 23.109375 20.242188 22.953125 L 20.511719 21.433594 Z M 22.667969 22.410156 C 22.691406 22.296875 22.710938 22.183594 22.710938 22.023438 C 22.710938 21.886719 22.710938 21.75 22.667969 21.636719 C 22.644531 21.523438 22.578125 21.433594 22.511719 21.34375 C 22.441406 21.253906 22.351562 21.183594 22.242188 21.140625 C 22.128906 21.09375 21.992188 21.070312 21.859375 21.070312 C 21.703125 21.070312 21.589844 21.09375 21.476562 21.140625 C 21.367188 21.183594 21.277344 21.253906 21.207031 21.34375 C 21.140625 21.410156 21.097656 21.523438 21.050781 21.636719 C 21.03125 21.75 21.007812 21.886719 21.007812 22.023438 C 21.007812 22.160156 21.007812 22.296875 21.050781 22.410156 C 21.074219 22.523438 21.140625 22.613281 21.207031 22.703125 C 21.277344 22.792969 21.367188 22.863281 21.476562 22.90625 C 21.589844 22.953125 21.703125 22.976562 21.859375 22.976562 C 22.015625 22.976562 22.128906 22.953125 22.242188 22.90625 C 22.351562 22.863281 22.441406 22.792969 22.511719 22.703125 C 22.578125 22.636719 22.621094 22.523438 22.667969 22.410156 Z M 23.96875 21.457031 C 23.992188 21.480469 24.015625 21.457031 24.015625 21.433594 C 24.015625 21.425781 24.019531 21.417969 24.023438 21.40625 C 24.050781 21.328125 24.09375 21.203125 24.035156 21.160156 C 24.035156 21.140625 24.015625 21.117188 24.015625 21.117188 C 24.003906 21.117188 23.984375 21.113281 23.960938 21.109375 C 23.914062 21.101562 23.855469 21.09375 23.8125 21.09375 C 23.699219 21.074219 23.613281 21.105469 23.550781 21.128906 C 23.539062 21.132812 23.53125 21.136719 23.519531 21.140625 C 23.507812 21.148438 23.492188 21.160156 23.476562 21.167969 C 23.417969 21.207031 23.355469 21.246094 23.320312 21.296875 L 23.320312 21.164062 C 23.320312 21.140625 23.320312 21.117188 23.296875 21.117188 L 23.003906 21.117188 C 23.003906 21.117188 22.984375 21.140625 22.984375 21.164062 L 22.984375 22.929688 C 22.984375 22.953125 23.003906 22.976562 23.027344 22.976562 L 23.34375 22.976562 C 23.363281 22.976562 23.386719 22.953125 23.386719 22.929688 L 23.386719 22.046875 C 23.386719 21.910156 23.410156 21.796875 23.433594 21.730469 C 23.476562 21.636719 23.5 21.59375 23.542969 21.546875 C 23.5625 21.511719 23.609375 21.488281 23.652344 21.46875 C 23.660156 21.464844 23.671875 21.460938 23.679688 21.457031 C 23.722656 21.433594 23.792969 21.433594 23.835938 21.433594 C 23.902344 21.433594 23.96875 21.457031 23.96875 21.457031 Z M 25.066406 22.996094 C 25.246094 22.996094 25.425781 22.953125 25.5625 22.90625 C 25.5625 22.90625 25.59375 22.890625 25.605469 22.898438 L 25.515625 22.679688 C 25.496094 22.632812 25.472656 22.65625 25.472656 22.65625 C 25.425781 22.679688 25.382812 22.703125 25.316406 22.703125 C 25.269531 22.726562 25.203125 22.726562 25.136719 22.726562 C 24.957031 22.726562 24.820312 22.65625 24.730469 22.566406 C 24.621094 22.476562 24.574219 22.316406 24.574219 22.089844 C 24.574219 21.910156 24.621094 21.75 24.710938 21.636719 C 24.796875 21.523438 24.910156 21.457031 25.089844 21.457031 C 25.226562 21.457031 25.335938 21.457031 25.449219 21.5 C 25.449219 21.5 25.472656 21.523438 25.496094 21.480469 C 25.539062 21.386719 25.5625 21.320312 25.585938 21.230469 C 25.585938 21.207031 25.5625 21.183594 25.5625 21.183594 C 25.515625 21.160156 25.429688 21.136719 25.339844 21.117188 C 25.25 21.09375 25.160156 21.09375 25.070312 21.09375 C 24.933594 21.09375 24.800781 21.117188 24.6875 21.160156 C 24.574219 21.207031 24.484375 21.273438 24.417969 21.367188 C 24.328125 21.433594 24.285156 21.546875 24.238281 21.660156 C 24.195312 21.773438 24.171875 21.910156 24.171875 22.046875 C 24.171875 22.339844 24.238281 22.566406 24.394531 22.75 C 24.53125 22.90625 24.777344 22.996094 25.066406 22.996094 Z M 27.265625 22.136719 C 27.265625 22.136719 27.3125 22.136719 27.3125 22.113281 C 27.3125 22.109375 27.3125 22.105469 27.3125 22.09375 C 27.320312 22.03125 27.34375 21.828125 27.265625 21.59375 C 27.222656 21.480469 27.15625 21.367188 27.109375 21.320312 C 27.042969 21.230469 26.953125 21.160156 26.886719 21.140625 C 26.796875 21.09375 26.683594 21.070312 26.550781 21.070312 C 26.414062 21.070312 26.28125 21.09375 26.167969 21.140625 C 26.054688 21.183594 25.964844 21.253906 25.898438 21.34375 C 25.832031 21.433594 25.785156 21.546875 25.742188 21.660156 C 25.71875 21.773438 25.695312 21.910156 25.695312 22.046875 C 25.695312 22.183594 25.695312 22.316406 25.742188 22.429688 C 25.785156 22.542969 25.855469 22.636719 25.921875 22.726562 C 25.988281 22.816406 26.101562 22.882812 26.210938 22.929688 C 26.324219 22.976562 26.480469 22.996094 26.640625 22.996094 C 26.976562 22.996094 27.15625 22.929688 27.222656 22.882812 C 27.222656 22.878906 27.226562 22.871094 27.226562 22.867188 C 27.230469 22.855469 27.238281 22.847656 27.222656 22.816406 L 27.15625 22.589844 C 27.132812 22.542969 27.109375 22.566406 27.109375 22.566406 C 27.042969 22.613281 26.910156 22.660156 26.640625 22.660156 C 26.460938 22.660156 26.324219 22.613281 26.234375 22.523438 C 26.144531 22.453125 26.101562 22.320312 26.101562 22.136719 Z M 27.265625 22.136719 "/>
</g>
</svg>
