<?xml version="1.0" encoding="utf-8"?>
<!-- Generator: Adobe Illustrator 26.5.0, SVG Export Plug-In . SVG Version: 6.00 Build 0)  -->
<svg version="1.0" id="katman_1" xmlns="http://www.w3.org/2000/svg" xmlns:xlink="http://www.w3.org/1999/xlink" x="0px" y="0px"
	 viewBox="0 0 1190.55 841.89" style="enable-background:new 0 0 1190.55 841.89;" xml:space="preserve">
<style type="text/css">
	.st0{fill:#7C868D;}
	.st1{fill-rule:evenodd;clip-rule:evenodd;fill:#7C868D;}
	.st2{fill:#14A0DC;}
	.st3{fill-rule:evenodd;clip-rule:evenodd;fill:#14A0DC;}
</style>
<path class="st0" d="M756.59,331.01h7.21v48.35l20.78-19.93h11.03l-22.05,20.78l24.17,25.02H786.7l-22.48-24.17v24.17h-7.63V331.01z
	"/>
<path class="st0" d="M588.21,358.58h7.21v7.63c0.3-0.89,0.8-1.58,1.37-2.34c0.24-0.33,0.5-0.67,0.75-1.05
	c0.85-0.85,2.12-2.12,3.39-2.97c0.64-0.42,1.38-0.74,2.12-1.06c0.74-0.32,1.48-0.64,2.12-1.06c1.7-0.42,3.39-0.85,5.09-0.85
	c2.54,0,4.67,0.42,6.36,0.85c1.7,0.42,2.97,1.27,4.24,2.12c1.27,0.85,2.12,1.7,2.54,2.97c0.21,0.42,0.53,0.85,0.85,1.27
	c0.32,0.42,0.64,0.85,0.85,1.27c1.7-2.54,3.82-4.67,5.94-6.36c2.12-1.7,5.09-2.12,8.48-2.12c3.39,0,5.94,0.42,8.06,1.27
	c2.12,0.85,3.82,2.12,5.51,3.82c1.27,1.7,2.54,3.82,2.97,5.94c0.42,2.54,0.85,5.09,0.85,8.06v27.57h-7.63v-27.14
	c0-1.7,0-2.97-0.42-4.67c-0.42-1.7-0.85-2.97-1.7-3.82c-0.85-1.27-2.12-2.12-3.39-2.97c-1.27-0.85-3.39-1.27-5.51-1.27
	c-1.41,0-2.52,0.29-3.83,0.63l-0.44,0.11l-0.4,0.1l-3.82,2.54c-1.27,1.27-2.12,2.54-2.54,4.24c-0.42,1.7-0.85,3.39-0.85,5.51v26.3
	h-7.63v-25.87c0-5.09-0.85-8.48-2.12-10.6s-3.82-2.97-6.79-2.97c-2.54,0-4.67,0.42-6.36,1.27c-1.7,0.85-3.39,2.12-4.24,3.82
	c-1.27,1.7-2.12,3.39-2.54,5.51c-0.42,2.12-0.85,4.66-0.85,7.21v22.05h-7.63V358.58z"/>
<path class="st1" d="M670.92,364.94c2.54-2.54,5.09-4.24,8.48-5.51c3.39-1.27,6.36-1.7,9.76-1.7c6.79,0,11.45,1.7,14.84,4.67
	c2.97,3.39,4.67,8.06,4.67,14.42v23.75c0,0.64,0.11,1.27,0.21,1.91c0.11,0.64,0.21,1.27,0.21,1.91h-7.21
	c-0.42-0.85-0.42-2.12-0.42-3.39v-3.39c-1.7,2.54-3.39,4.24-5.94,5.94c-2.54,1.7-5.51,2.12-8.91,2.12c-2.54,0-4.67-0.42-6.79-0.85
	c-2.12-0.42-3.82-1.27-5.51-2.54c-1.5-1.13-2.34-2.25-3.4-3.68l-0.42-0.56c-0.85-1.7-1.27-3.82-1.27-5.94
	c0-3.82,0.85-6.79,2.97-8.91s4.24-3.82,7.21-4.67c2.97-0.85,5.94-1.7,9.33-2.12c3.39-0.42,6.36-0.42,9.33-0.42h2.97v-1.27
	c0-3.39-0.85-5.94-2.97-7.63c-2.12-1.7-4.67-2.54-8.48-2.54c-2.54,0-5.09,0.42-7.21,1.27c-2.54,0.85-4.67,2.12-6.36,3.82
	L670.92,364.94z M692.97,382.75c-5.09,0-8.91,0.85-11.45,2.12c-2.97,1.27-4.24,3.82-4.24,6.79c0,2.97,0.85,5.09,2.97,5.94
	c2.12,1.27,4.24,1.7,7.21,1.7c2.12,0,4.24-0.42,5.94-1.27c1.7-0.85,2.97-1.7,4.24-2.97c1.27-1.27,2.12-2.54,2.54-4.24
	c0.42-1.7,0.85-3.39,0.85-5.51v-2.97h-8.06V382.75z"/>
<path class="st0" d="M721.81,403.54h7.63v-22.05c0-5.09,0.85-9.33,2.97-12.3c2.12-2.97,5.51-4.67,10.18-4.67c1.7,0,2.97,0,4.24,0.42
	l0.42-7.63c-0.45-0.22-0.66-0.33-0.88-0.38c-0.2-0.05-0.41-0.05-0.81-0.05h-1.7c-1.7,0-3.39,0.42-5.09,0.85
	c-0.64,0.42-1.38,0.74-2.12,1.06c-0.74,0.32-1.48,0.64-2.12,1.06c-1.27,0.85-2.54,1.7-3.39,2.97c-0.25,0.38-0.51,0.72-0.75,1.05
	c-0.57,0.77-1.08,1.45-1.37,2.34v-7.63h-7.21V403.54z"/>
<path class="st1" d="M837.17,403.54c3.39-1.27,6.36-3.82,8.91-7.21l-6.36-4.24c-1.7,2.12-3.82,3.82-5.94,5.09
	c-2.54,1.27-5.09,1.7-8.48,1.7c-2.12,0-4.24-0.42-5.94-1.27c-1.7-0.42-3.39-1.7-4.67-2.97c-1.27-1.27-2.12-2.97-2.97-4.67
	c-0.85-1.7-1.27-3.39-1.27-5.51h36.9v-2.54c0-3.82-0.85-7.21-1.7-10.18c-0.85-2.97-2.54-5.51-4.24-7.63
	c-1.7-2.12-4.24-3.39-6.79-4.67c-2.97-1.27-5.51-1.7-8.91-1.7c-3.39,0-6.36,0.42-9.33,1.7c-2.54,1.27-5.09,2.97-7.21,5.09
	c-2.12,2.12-3.82,4.67-5.09,7.63c-1.27,2.97-1.7,6.36-1.7,9.76c0,3.39,0.42,6.36,1.7,9.33c1.27,2.97,2.54,5.51,4.67,7.63
	c2.12,2.12,4.24,3.82,7.21,5.09c2.97,0.85,6.36,1.7,9.76,1.7C829.96,405.66,833.78,404.81,837.17,403.54z M835.48,368.33
	c2.54,2.12,3.82,5.51,3.82,9.33h-28.42c0.42-3.82,2.12-6.79,4.67-9.33c2.54-2.12,5.94-3.39,10.18-3.39
	C829.96,364.94,832.93,365.79,835.48,368.33z"/>
<path class="st0" d="M870.68,365.36v27.14c0,1.27,0.42,2.54,0.85,3.39c0.42,0.85,1.27,1.7,2.12,2.12c0.85,0.42,2.12,0.85,3.82,0.85
	c1.27,0,2.12,0,3.39-0.42c0.64-0.21,1.17-0.42,1.7-0.64c0.53-0.21,1.06-0.42,1.7-0.64l0.42,6.79c-1.27,0.42-2.55,0.85-4.24,1.27
	s-2.97,0.42-4.67,0.42c-2.54,0-5.09-0.42-6.36-1.27c-1.7-0.85-2.97-1.7-3.82-2.97c-0.85-1.27-1.7-2.97-1.7-4.67
	c-0.42-2.12-0.42-4.24-0.42-6.36v-25.02h-9.76V359h9.76v-13.15h7.63V359h13.57v6.36H870.68z"/>
<path class="st0" d="M894.43,337.37c-1.27,0.85-1.7,2.12-1.7,3.82c0,1.7,0.42,2.97,1.7,3.82c0.85,1.27,2.54,1.7,3.82,1.7
	c1.27,0,2.97-0.85,3.82-1.7c1.27-0.85,1.7-2.12,1.7-3.82c0-1.27-0.42-2.54-1.7-3.82c-0.85-1.27-2.12-1.7-3.82-1.7
	C896.97,335.68,895.7,336.1,894.43,337.37z"/>
<path class="st0" d="M902.06,404.81V359h-7.63v45.8H902.06z"/>
<path class="st0" d="M917.33,369.61v-11.03h7.21v7.63c0.3-0.89,0.8-1.58,1.37-2.34c0.24-0.33,0.5-0.67,0.75-1.05
	c0.85-1.27,2.12-2.12,3.39-2.97c0.64-0.42,1.38-0.74,2.13-1.06c0.74-0.32,1.48-0.64,2.12-1.06c1.7-0.42,3.39-0.85,5.09-0.85
	c2.97,0,5.52,0.42,7.64,1.27c2.12,0.85,3.81,2.12,5.51,3.82c1.27,1.7,2.55,3.39,2.97,5.94c0.85,2.12,0.85,4.67,0.85,7.63v27.99
	h-7.63v-27.57c0-3.82-0.85-6.79-2.55-8.91c-1.7-2.12-4.24-3.39-8.06-3.39c-2.55,0-4.66,0.42-6.37,1.27
	c-1.7,0.85-3.39,2.12-4.24,3.82c-1.28,1.7-2.12,3.39-2.55,5.51c-0.42,2.12-0.85,4.66-0.85,7.21v22.05h-7.63v-33.93H917.33z"/>
<path class="st1" d="M1010.64,421.77c4.24-4.24,6.36-10.6,6.36-19.09V359h-7.63v7.63c-0.85-1.27-1.7-2.54-2.97-3.82
	c-0.66-1-1.85-1.73-2.94-2.41c-0.31-0.19-0.6-0.37-0.88-0.56c-1.7-0.85-2.97-1.27-4.66-1.7c-1.7-0.42-2.97-0.42-4.66-0.42
	c-3.39,0-6.78,0.42-9.75,1.7c-2.97,0.85-5.52,2.54-7.63,4.67c-2.13,2.12-3.82,4.67-5.09,7.63c-1.27,2.97-1.7,6.36-1.7,10.18
	c0,3.39,0.42,6.36,1.7,9.33c1.27,2.54,2.97,5.51,5.09,7.21c2.12,1.7,4.66,3.39,7.63,4.67c2.97,1.27,6.36,1.7,9.75,1.7
	c2.97,0,5.94-0.85,8.91-2.12s5.52-3.39,7.21-6.36v5.94c0,2.12-0.42,4.67-0.85,6.79c-0.42,2.12-0.84,4.24-2.54,5.94
	c-1.7,1.7-3.4,3.39-5.52,4.24c-2.12,1.27-5.09,1.7-8.49,1.7c-3.39,0-6.78-0.85-9.33-2.12c-2.55-1.27-5.09-3.39-7.63-5.94l-5.52,6.36
	c2.97,3.39,6.37,5.51,10.18,6.79c3.82,1.27,7.63,2.12,12.3,2.12C1000.04,428.13,1006.4,426.01,1010.64,421.77z M978.4,388.27
	c-0.84-1.7-1.27-3.82-1.27-6.36c0-1.33,0.11-2.54,0.23-3.7c0.1-1.06,0.2-2.07,0.2-3.08c0.84-2.12,2.12-3.82,3.39-5.51
	c1.27-1.7,2.97-2.97,5.09-3.82c2.12-0.85,4.24-1.27,6.79-1.27s4.66,0.42,6.78,1.27c2.13,0.85,3.82,1.7,5.09,3.39
	c1.7,1.7,2.54,3.39,3.39,5.51c0.85,2.12,1.27,4.24,1.27,6.79c0,1.68-0.54,3.62-0.96,5.2c-0.11,0.41-0.22,0.81-0.31,1.16
	c-0.42,1.7-1.7,3.39-2.97,5.09c-1.27,1.7-3.39,2.97-5.09,3.82c-1.7,0.85-4.24,1.27-6.79,1.27c-2.12,0-4.24-0.42-6.36-1.27
	c-2.12-0.85-3.82-2.12-5.09-3.39C980.53,392.08,979.25,390.39,978.4,388.27z"/>
<path class="st0" d="M620.87,474.79c-1.7-2.12-3.39-3.39-5.09-4.24c-1.7-0.85-3.82-1.27-6.36-1.27s-4.67,0.42-6.79,1.27
	c-2.12,0.85-3.39,2.12-4.67,3.82c-1.27,1.7-2.12,3.39-2.97,5.51c-0.85,2.12-0.85,4.24-0.85,6.79s0.42,4.67,1.27,6.79
	c0.85,2.12,1.7,3.82,2.97,5.51c1.27,1.7,2.97,2.97,4.67,3.82c1.7,0.85,3.82,1.27,6.36,1.27c5.09,0,8.91-1.7,11.45-5.51l5.51,5.51
	c-2.12,2.54-4.67,4.24-7.63,5.51c-2.97,1.27-5.94,1.7-9.33,1.7c-3.39,0-6.79-0.42-9.75-1.7c-2.97-1.27-5.51-2.97-7.63-5.09
	s-3.82-4.67-4.67-7.63c-0.85-2.97-1.7-5.94-1.7-9.75c0-3.39,0.42-6.79,1.7-9.75c1.27-2.97,2.54-5.51,4.67-7.63
	c2.12-2.12,4.67-3.82,7.63-5.09c2.97-1.27,5.94-1.7,9.75-1.7c3.39,0,6.79,0.42,9.75,1.7c2.97,1.27,5.51,2.97,8.06,5.51
	L620.87,474.79z"/>
<path class="st0" d="M643.77,435.34h-7.63v73.8h7.63V435.34z"/>
<path class="st1" d="M656.07,486.24c0-3.39,0.42-6.79,1.7-9.75c1.27-2.97,2.97-5.51,5.09-7.63c2.12-2.12,4.67-3.82,7.63-5.09
	c2.97-1.27,6.36-1.7,9.76-1.7c3.39,0,6.79,0.42,9.75,1.7c2.97,1.27,5.51,2.97,7.63,5.09c2.12,2.12,3.82,4.67,5.09,7.63
	c1.27,2.97,1.7,6.36,1.7,9.75c0,3.39-0.42,6.79-1.7,9.75c-1.27,2.97-2.97,5.51-5.09,7.63c-2.12,2.12-4.67,3.82-7.63,5.09
	c-2.97,1.27-6.36,1.7-9.75,1.7c-3.39,0-6.79-0.42-9.76-1.7c-2.97-1.27-5.51-2.97-7.63-5.09c-2.12-2.12-3.82-4.67-5.09-7.63
	C656.5,493.02,656.07,489.63,656.07,486.24z M664.13,486.24c0,2.54,0.42,4.67,1.27,6.79c0.85,2.12,1.7,3.82,3.39,5.51
	c1.7,1.7,2.97,2.54,5.09,3.82c2.12,0.85,4.24,1.27,6.79,1.27c2.54,0,4.66-0.42,6.79-1.27c2.12-0.85,3.82-2.12,5.09-3.82
	c1.27-1.7,2.54-3.39,3.39-5.51c0.85-2.12,1.27-4.24,1.27-6.79c0-2.54-0.42-4.67-1.27-6.79c-0.85-2.12-1.7-3.82-3.39-5.51
	c-1.1-1.46-2.51-2.3-4.24-3.31l-0.58-0.34l-0.27-0.16c-2.12-1.27-4.24-1.27-6.79-1.27c-2.54,0-4.67,0.42-6.79,1.27
	c-2.12,0.85-3.82,2.12-5.09,3.82c-1.27,1.7-2.54,3.39-3.39,5.51C664.56,481.57,664.13,483.69,664.13,486.24z"/>
<path class="st0" d="M756.59,498.11h1.27v-33.93h-7.63v22.05c0,2.54-0.42,5.09-0.85,7.21c-0.42,2.12-1.27,3.82-2.54,5.51
	c-0.85,1.7-2.54,2.97-4.24,3.82c-1.7,0.85-3.82,1.27-6.36,1.27c-3.82,0-6.36-1.27-8.06-3.39c-1.7-2.12-2.54-5.09-2.54-8.91v-27.57
	h-7.63v27.99c0,2.97,0,5.51,0.85,7.63c0.42,2.54,1.7,4.24,2.97,5.94c1.7,1.7,3.39,2.97,5.51,3.82c2.12,0.85,4.67,1.27,7.63,1.27
	c1.7,0,3.39-0.42,5.09-0.85c0.64-0.42,1.38-0.74,2.12-1.06c0.74-0.32,1.48-0.64,2.12-1.06c1.27-0.85,2.54-2.12,3.39-2.97
	c0.25-0.38,0.51-0.72,0.75-1.05c0.57-0.77,1.08-1.45,1.37-2.34v7.63h6.79V498.11z"/>
<path class="st1" d="M808.76,501.08c-1.7,2.54-3.82,4.67-6.79,6.79c-2.97,1.7-6.79,2.54-10.6,2.54c-3.39,0-6.36-0.42-8.91-1.7
	c-2.97-1.27-5.09-2.97-7.21-5.09c-2.12-2.12-3.82-4.67-4.67-7.63c-1.27-2.97-1.7-5.94-1.7-9.75c0-3.82,0.42-6.79,1.7-9.75
	c1.27-2.97,2.97-5.51,5.09-7.63c2.12-2.12,4.66-3.82,7.63-5.09c2.97-1.27,6.36-1.7,9.76-1.7c3.39,0,6.36,0.85,9.33,2.12
	c2.97,1.27,5.09,3.39,7.21,5.94v-34.78h7.63v73.8h-7.63v-8.06H808.76z M808.76,486.24c0-2.54-0.42-4.67-1.27-6.79
	c-0.85-2.12-1.7-3.82-3.39-5.51c-1.1-1.46-2.51-2.3-4.24-3.31c-0.28-0.16-0.56-0.33-0.85-0.5c-2.12-0.85-4.24-1.27-6.79-1.27
	c-2.54,0-4.67,0.42-6.79,1.27c-2.12,0.85-3.82,2.12-5.09,3.82c-1.27,1.7-2.54,3.39-3.39,5.51c-0.85,2.12-1.27,4.24-1.27,6.79
	c0,2.54,0.42,4.67,1.27,6.79c0.85,2.12,1.7,3.82,3.39,5.51c1.7,1.7,2.97,2.54,5.09,3.82c2.12,0.85,4.24,1.27,6.79,1.27
	c2.54,0,4.67-0.42,6.79-1.27c2.12-0.85,3.82-2.12,5.09-3.82c1.27-1.7,2.54-3.39,3.39-5.51C808.33,490.9,808.76,488.78,808.76,486.24
	z"/>
<path class="st2" d="M274.79,413.29c2.97,0,5.94,0.42,5.94,0.42v10.18c0,0-2.97,0.85-5.94,0.85c-4.24,0.42-6.36-1.27-6.36-1.27
	l-1.27-1.27c-0.42-0.85-0.85-1.7-0.85-2.97c0-1.7,0.85-3.39,2.12-4.24C268.43,414.99,270.12,413.29,274.79,413.29z"/>
<path class="st2" d="M323.99,400.14c-2.97,0-5.09,1.27-6.36,3.39c-0.85,1.27-1.27,2.97-1.7,5.09h15.69c0-2.12-0.42-3.82-1.27-5.09
	C329.08,401.42,326.96,400.14,323.99,400.14z"/>
<path class="st2" d="M406.69,403.11c1.27-2.12,3.39-2.97,6.36-2.97c2.97,0,5.09,1.27,6.36,2.97c1.27,2.12,2.12,5.09,2.12,8.91
	s-0.85,6.79-2.12,8.91c-1.27,2.12-3.39,2.97-6.36,2.97c-2.97,0-5.09-0.85-6.36-2.97c-1.27-2.12-2.12-5.09-2.12-8.91
	S405.42,405.23,406.69,403.11z"/>
<path class="st2" d="M501.27,400.14c-2.97,0-5.09,1.27-6.36,3.39c-0.85,1.27-1.27,2.97-1.7,5.09h15.69c0-2.12-0.42-3.82-1.27-5.09
	C506.36,401.42,504.24,400.14,501.27,400.14z"/>
<path class="st3" d="M439.35,330.16c10.18-4.67,21.63-7.21,33.51-7.21c45.38,0,82.28,37.32,81.86,83.13
	c0,45.8-36.9,83.13-82.28,83.13c-5.51,0-11.03-0.85-16.12-1.7c-10.18,18.66-30.11,30.96-52.59,30.96c-9.33,0-18.24-2.12-26.3-5.94
	c-10.6,24.6-34.78,41.99-63.19,41.99c-29.69,0-54.71-18.66-64.47-44.96c-4.24,0.85-8.48,1.27-13.15,1.27
	c-35.2,0-63.62-28.84-63.62-64.47c0-23.75,12.72-44.96,31.81-55.98c-3.82-9.33-5.94-19.08-5.94-29.69
	c0-41.14,33.08-74.22,74.22-74.22c24.18,0,45.38,11.45,58.95,29.26c12.3-12.72,29.26-20.78,48.35-20.78
	C405.42,294.96,427.47,309.38,439.35,330.16z M242.13,430.68c8.06,0,12.72-4.24,12.72-11.03c0-6.36-5.51-8.91-10.18-9.33l-0.85-0.42
	c-3.82-1.27-7.21-2.54-7.21-5.09c0-2.12,2.12-3.82,5.09-3.82c2.97,0,7.21,1.27,9.76,2.54c0,0,0.42,0.42,0.85-0.42
	c0.42-0.42,1.7-3.82,1.7-4.24s0-0.85-0.42-0.85c-2.54-1.7-6.79-2.97-11.03-2.97h-0.85c-7.21,0-12.3,4.24-12.3,10.6
	c0,6.36,5.51,8.91,10.6,10.18l0.85,0.42c3.82,0.85,7.21,2.12,7.21,4.67s-2.12,4.24-5.51,4.24c-1.27,0-5.51,0-10.18-2.97
	c-0.21-0.21-0.42-0.32-0.64-0.42c-0.21-0.11-0.42-0.21-0.64-0.42c0,0-0.42-0.42-0.85,0.42l-1.7,4.24c-0.42,0.42,0,0.85,0,0.85
	c0.42,0.21,0.74,0.42,1.06,0.64c0.32,0.21,0.64,0.42,1.06,0.64C234.5,430.25,238.31,430.68,242.13,430.68z M285.39,428.56
	c0.85,0,1.7-0.42,1.7-0.42c0.42,0,0.42-0.85,0-0.85v-20.36c0-4.24-0.85-7.63-3.39-9.75c-2.12-2.12-5.94-2.97-10.18-2.97
	c-1.7,0-4.24,0-5.94,0.42c0,0-4.67,0.85-6.79,2.54c0,0-0.42,0.42,0,0.85l1.7,4.24c0.42,0.42,0.85,0.42,0.85,0.42h0.42
	c4.24-2.12,9.75-2.12,9.75-2.12c2.54,0,4.24,0.42,5.51,1.27c1.27,0.85,1.7,2.12,1.7,5.09v0.85c-2.12-0.42-3.82-0.42-3.82-0.42h-3.39
	c-2.12,0-3.82,0.42-5.51,0.85c-1.7,0.42-3.39,1.27-4.67,2.12c-1.7,1.27-2.54,2.54-3.39,3.82c-0.85,1.27-1.27,2.97-1.27,5.09
	s0,3.82,0.85,5.09c0.85,1.27,1.7,2.54,2.97,3.39c1.27,1.27,2.97,1.7,4.67,2.12c1.7,0.42,3.82,0.42,5.94,0.42s4.67,0,6.79-0.42
	c0.93-0.19,1.94-0.45,2.86-0.69C283.9,428.83,284.92,428.56,285.39,428.56z M301.51,429.83c0,0,0.42-0.42,0.42-0.85v-47.5
	c0-0.42,0-0.85-0.42-0.85h-5.94c0,0-0.42,0.42-0.42,0.85v47.5c0,0.42,0,0.85,0.42,0.85H301.51z M337.98,414.14c0,0,0.85,0,0.85-0.42
	c0-0.05,0.01-0.14,0.01-0.27c0.06-1.09,0.27-4.95-0.86-9.48c-0.85-2.12-2.12-4.24-2.97-5.09c-1.27-1.7-2.97-2.97-4.24-3.39
	c-1.7-0.85-3.82-1.27-6.36-1.27s-5.09,0.42-7.21,1.27c-2.12,0.85-3.82,2.12-5.09,3.82c-1.27,1.7-2.12,3.82-2.97,5.94
	c-0.42,2.12-0.85,4.67-0.85,7.21c0,2.54,0,5.09,0.85,7.21c0.85,2.12,2.12,3.82,3.39,5.51c1.27,1.7,3.39,2.97,5.51,3.82
	c2.12,0.85,5.09,1.27,8.06,1.27c6.36,0,9.75-1.27,11.03-2.12c0-0.14,0.05-0.24,0.09-0.33c0.09-0.19,0.19-0.38-0.09-0.94l-1.27-4.24
	c-0.42-0.85-0.85-0.42-0.85-0.42c-1.27,0.85-3.82,1.7-8.91,1.7c-3.39,0-5.94-0.85-7.63-2.54c-1.7-1.27-2.54-3.82-2.54-7.21H337.98z
	 M344.56,427.07c0.32,0.21,0.64,0.42,1.06,0.64c3.17,1.76,6.34,2.35,9.76,2.99c0.69,0.13,1.4,0.26,2.12,0.4
	c8.06,0,12.72-4.24,12.72-11.03c0-6.36-5.51-8.48-10.6-10.18l-0.85-0.42c-3.82-1.27-7.21-2.54-7.21-5.09c0-2.12,2.12-3.82,5.09-3.82
	c2.97,0,7.21,1.27,9.75,2.54c0,0,0.42,0.42,0.85-0.42c0.42-0.42,1.7-3.82,1.7-4.24c0-0.42,0-0.85-0.42-0.85
	c-2.54-1.7-6.79-2.97-11.03-2.97h-0.85c-7.21,0-12.3,4.24-12.3,10.6c0,6.36,5.51,8.91,10.6,10.18l0.85,0.42
	c3.82,0.85,7.21,2.12,7.21,4.67s-2.12,4.24-5.51,4.24c-1.27,0-5.51,0-10.18-2.97c-0.21-0.21-0.42-0.32-0.64-0.42
	c-0.21-0.11-0.42-0.21-0.64-0.42c0,0-0.42-0.42-0.85,0.42l-1.7,4.24c-0.42,0.42,0,0.85,0,0.85
	C343.92,426.65,344.24,426.86,344.56,427.07z M394.82,400.99c0,0,0.85,0,0.85-0.85l0.85-3.82c0-0.42-0.42-0.85-0.85-0.85h-8.06
	c0-0.42,0.42-2.54,1.27-5.09c0.42-1.27,1.27-2.12,1.7-2.54c0.33-0.66,0.66-0.81,1.2-1.04c0.15-0.07,0.32-0.14,0.5-0.23
	c0.85-0.42,1.7-0.42,2.54-0.42h1.7c0.85,0.42,1.27,0.42,1.27,0.42c0.42,0,0.85,0,0.85-0.42l1.7-4.67c0-0.42-0.42-0.85-0.42-0.85
	c-0.42,0-0.74-0.11-1.06-0.21c-0.32-0.11-0.64-0.21-1.06-0.21c-0.85-0.42-1.7-0.42-2.97-0.42c-3.82,0-7.21,1.27-9.33,3.39
	c-2.12,2.54-3.39,5.51-4.24,10.18l-0.42,1.7h-5.09c0,0-0.85,0-0.85,0.85l-0.85,4.67c0,0.42,0.42,0.85,0.85,0.85h5.09l-5.09,27.57
	c-0.42,2.12-0.85,4.24-1.27,5.51c-0.85,1.27-1.27,2.12-1.7,2.97c-0.85,0.85-1.27,1.27-2.12,1.7c-0.85,0.42-1.7,0.42-2.54,0.42h-1.7
	c-0.21,0-0.42-0.11-0.64-0.21c-0.21-0.11-0.42-0.21-0.64-0.21c0,0-0.42,0-0.85,0.42c-0.42,0.42-1.7,4.24-1.7,4.67
	c0,0.42,0,0.85,0.42,0.85c0.42,0,0.74,0.11,1.06,0.21c0.32,0.11,0.64,0.21,1.06,0.21c1.27,0.42,2.54,0.42,3.39,0.42
	c2.12,0,3.82-0.42,5.51-0.85c1.7-0.85,2.97-1.7,4.24-2.97c1.27-1.7,2.12-2.97,2.97-5.09c0.85-2.12,1.7-4.67,2.12-7.63l5.09-28.42
	H394.82z M428.32,419.23c0.42-2.12,0.85-4.24,0.85-7.21c0-2.54,0-5.09-0.85-7.21c-0.42-2.12-1.7-3.82-2.97-5.51
	c-1.27-1.7-2.97-2.97-5.09-3.82c-2.12-0.85-4.67-1.27-7.21-1.27c-2.97,0-5.09,0.42-7.21,1.27c-2.12,0.85-3.82,2.12-5.09,3.82
	c-1.27,1.27-2.12,3.39-2.97,5.51c-0.42,2.12-0.85,4.67-0.85,7.21s0,5.09,0.85,7.21c0.42,2.12,1.7,3.82,2.97,5.51
	c1.27,1.7,2.97,2.97,5.09,3.82c2.12,0.85,4.24,1.27,7.21,1.27c2.97,0,5.09-0.42,7.21-1.27c2.12-0.85,3.82-2.12,5.09-3.82
	C426.62,423.47,427.47,421.35,428.32,419.23z M452.92,401.42c0.42,0.42,0.85,0,0.85-0.42c0.05-0.15,0.11-0.33,0.18-0.52
	c0.51-1.43,1.36-3.82,0.24-4.57c0-0.42-0.42-0.85-0.42-0.85c-0.16,0-0.54-0.06-1.02-0.13c-0.84-0.12-1.99-0.29-2.79-0.29
	c-2.17-0.36-3.73,0.2-4.93,0.64c-0.2,0.07-0.4,0.15-0.58,0.21c-0.28,0.18-0.57,0.37-0.87,0.56c-1.09,0.68-2.28,1.42-2.94,2.41v-2.54
	c0-0.42,0-0.85-0.42-0.85h-5.51c0,0-0.42,0.42-0.42,0.85v33.08c0,0.42,0.42,0.85,0.85,0.85h5.94c0.42,0,0.85-0.42,0.85-0.85v-16.54
	c0-2.54,0.42-4.67,0.85-5.94c0.85-1.7,1.27-2.54,2.12-3.39c0.34-0.68,1.24-1.09,2.02-1.45c0.19-0.09,0.36-0.17,0.53-0.25
	c0.85-0.42,2.12-0.42,2.97-0.42C451.65,400.99,452.92,401.42,452.92,401.42z M473.7,430.25c3.39,0,6.79-0.85,9.33-1.7
	c0,0,0.6-0.3,0.79-0.14l-1.64-4.1c-0.42-0.85-0.85-0.42-0.85-0.42c-0.85,0.42-1.7,0.85-2.97,0.85c-0.85,0.42-2.12,0.42-3.39,0.42
	c-3.39,0-5.94-1.27-7.63-2.97c-2.12-1.7-2.97-4.66-2.97-8.91c0-3.39,0.85-6.36,2.54-8.48s3.82-3.39,7.21-3.39
	c2.54,0,4.67,0,6.79,0.85c0,0,0.42,0.42,0.85-0.42c0.85-1.7,1.27-2.97,1.7-4.67c0-0.42-0.42-0.85-0.42-0.85
	c-0.85-0.42-2.54-0.85-4.24-1.27c-1.7-0.42-3.39-0.42-5.09-0.42c-2.54,0-5.09,0.42-7.21,1.27c-2.12,0.85-3.82,2.12-5.09,3.82
	c-1.7,1.27-2.54,3.39-3.39,5.51c-0.85,2.12-1.27,4.67-1.27,7.21c0,5.51,1.27,9.75,4.24,13.15
	C463.52,428.56,468.19,430.25,473.7,430.25z M515.27,414.14c0,0,0.85,0,0.85-0.42c0-0.05,0.01-0.17,0.03-0.35
	c0.14-1.18,0.59-4.97-0.88-9.41c-0.85-2.12-2.12-4.24-2.97-5.09c-1.27-1.7-2.97-2.97-4.24-3.39c-1.7-0.85-3.82-1.27-6.36-1.27
	c-2.54,0-5.09,0.42-7.21,1.27c-2.12,0.85-3.82,2.12-5.09,3.82c-1.27,1.7-2.12,3.82-2.97,5.94c-0.42,2.12-0.85,4.67-0.85,7.21
	c0,2.54,0,5.09,0.85,7.21c0.85,2.12,2.12,3.82,3.39,5.51c1.27,1.7,3.39,2.97,5.51,3.82c2.12,0.85,5.09,1.27,8.06,1.27
	c6.36,0,9.75-1.27,11.03-2.12c0-0.14,0.05-0.24,0.09-0.33c0.09-0.19,0.19-0.38-0.09-0.94l-1.27-4.24c-0.42-0.85-0.85-0.42-0.85-0.42
	c-1.27,0.85-3.82,1.7-8.91,1.7c-3.39,0-5.94-0.85-7.63-2.54c-1.7-1.27-2.54-3.82-2.54-7.21H515.27z"/>
</svg>
