<?xml version="1.0" encoding="UTF-8"?>
<svg xmlns="http://www.w3.org/2000/svg" xmlns:xlink="http://www.w3.org/1999/xlink" width="45px" height="45px" viewBox="0 0 45 45" version="1.1">
<g id="surface1">
<path style=" stroke:none;fill-rule:nonzero;fill:rgb(48.627451%,52.54902%,55.294118%);fill-opacity:1;" d="M 31.113281 7.476562 L 31.5 7.476562 L 31.5 15.59375 L 32.605469 12.25 L 33.195312 12.25 L 32.019531 15.738281 L 33.308594 19.9375 L 32.71875 19.9375 L 31.519531 15.878906 L 31.519531 19.9375 L 31.113281 19.9375 Z M 31.113281 7.476562 "/>
<path style=" stroke:none;fill-rule:nonzero;fill:rgb(48.627451%,52.54902%,55.294118%);fill-opacity:1;" d="M 22.136719 12.105469 L 22.523438 12.105469 L 22.523438 13.386719 C 22.539062 13.238281 22.566406 13.121094 22.59375 12.992188 C 22.609375 12.9375 22.621094 12.882812 22.636719 12.816406 C 22.679688 12.675781 22.75 12.460938 22.816406 12.320312 C 22.851562 12.25 22.890625 12.195312 22.929688 12.140625 C 22.96875 12.085938 23.007812 12.035156 23.042969 11.964844 C 23.132812 11.890625 23.222656 11.820312 23.3125 11.820312 C 23.449219 11.820312 23.5625 11.890625 23.652344 11.964844 C 23.742188 12.035156 23.8125 12.175781 23.878906 12.320312 C 23.945312 12.460938 23.992188 12.605469 24.015625 12.816406 C 24.023438 12.886719 24.042969 12.960938 24.058594 13.03125 C 24.078125 13.101562 24.09375 13.171875 24.105469 13.242188 C 24.195312 12.816406 24.308594 12.460938 24.421875 12.175781 C 24.535156 11.890625 24.691406 11.820312 24.875 11.820312 C 25.054688 11.820312 25.191406 11.890625 25.304688 12.035156 C 25.414062 12.175781 25.507812 12.390625 25.597656 12.675781 C 25.664062 12.960938 25.730469 13.316406 25.753906 13.671875 C 25.777344 14.097656 25.800781 14.527344 25.800781 15.023438 L 25.800781 19.652344 L 25.394531 19.652344 L 25.394531 15.097656 C 25.394531 14.8125 25.394531 14.597656 25.371094 14.3125 C 25.347656 14.027344 25.324219 13.816406 25.28125 13.671875 C 25.234375 13.457031 25.167969 13.316406 25.101562 13.171875 C 25.03125 13.03125 24.917969 12.960938 24.804688 12.960938 C 24.730469 12.960938 24.671875 13.007812 24.601562 13.066406 L 24.578125 13.085938 L 24.558594 13.101562 L 24.351562 13.527344 C 24.285156 13.742188 24.242188 13.953125 24.21875 14.238281 C 24.195312 14.523438 24.171875 14.808594 24.171875 15.164062 L 24.171875 19.578125 L 23.765625 19.578125 L 23.765625 15.238281 C 23.765625 14.382812 23.722656 13.8125 23.652344 13.457031 C 23.585938 13.101562 23.449219 12.957031 23.292969 12.957031 C 23.15625 12.957031 23.042969 13.027344 22.953125 13.171875 C 22.863281 13.316406 22.769531 13.527344 22.726562 13.8125 C 22.660156 14.097656 22.613281 14.382812 22.589844 14.738281 C 22.566406 15.09375 22.546875 15.519531 22.546875 15.949219 L 22.546875 19.648438 L 22.136719 19.648438 Z M 22.136719 12.105469 "/>
<path style=" stroke:none;fill-rule:evenodd;fill:rgb(48.627451%,52.54902%,55.294118%);fill-opacity:1;" d="M 26.546875 13.171875 C 26.683594 12.746094 26.820312 12.460938 27 12.25 C 27.179688 12.035156 27.339844 11.964844 27.519531 11.964844 C 27.882812 11.964844 28.128906 12.25 28.308594 12.746094 C 28.46875 13.316406 28.558594 14.101562 28.558594 15.167969 L 28.558594 19.15625 C 28.558594 19.261719 28.566406 19.367188 28.570312 19.476562 C 28.578125 19.582031 28.582031 19.6875 28.582031 19.796875 L 28.199219 19.796875 C 28.175781 19.652344 28.175781 19.441406 28.175781 19.226562 L 28.175781 18.65625 C 28.085938 19.085938 27.996094 19.371094 27.859375 19.65625 C 27.722656 19.941406 27.566406 20.011719 27.382812 20.011719 C 27.25 20.011719 27.132812 19.941406 27.023438 19.867188 C 26.910156 19.796875 26.816406 19.65625 26.726562 19.441406 C 26.648438 19.253906 26.601562 19.0625 26.546875 18.824219 L 26.523438 18.730469 C 26.480469 18.445312 26.457031 18.089844 26.457031 17.734375 C 26.457031 17.089844 26.5 16.59375 26.613281 16.238281 C 26.726562 15.882812 26.839844 15.597656 27 15.453125 C 27.15625 15.3125 27.316406 15.167969 27.496094 15.097656 C 27.675781 15.027344 27.835938 15.027344 27.992188 15.027344 L 28.152344 15.027344 L 28.152344 14.8125 C 28.152344 14.246094 28.105469 13.816406 27.992188 13.53125 C 27.882812 13.246094 27.746094 13.105469 27.542969 13.105469 C 27.40625 13.105469 27.269531 13.175781 27.15625 13.320312 C 27.023438 13.460938 26.910156 13.675781 26.820312 13.960938 Z M 27.722656 16.164062 C 27.453125 16.164062 27.246094 16.304688 27.113281 16.519531 C 26.953125 16.734375 26.886719 17.160156 26.886719 17.660156 C 26.886719 18.15625 26.929688 18.515625 27.042969 18.65625 C 27.15625 18.871094 27.269531 18.941406 27.429688 18.941406 C 27.542969 18.941406 27.65625 18.871094 27.746094 18.730469 C 27.835938 18.585938 27.902344 18.441406 27.972656 18.230469 C 28.039062 18.015625 28.085938 17.804688 28.105469 17.519531 C 28.128906 17.234375 28.152344 16.949219 28.152344 16.59375 L 28.152344 16.09375 L 27.722656 16.09375 Z M 27.722656 16.164062 "/>
<path style=" stroke:none;fill-rule:nonzero;fill:rgb(48.627451%,52.54902%,55.294118%);fill-opacity:1;" d="M 29.261719 19.652344 L 29.667969 19.652344 L 29.667969 15.953125 C 29.667969 15.097656 29.710938 14.386719 29.824219 13.886719 C 29.9375 13.386719 30.117188 13.101562 30.367188 13.101562 C 30.457031 13.101562 30.527344 13.101562 30.59375 13.171875 L 30.617188 11.890625 C 30.59375 11.855469 30.582031 11.835938 30.570312 11.828125 C 30.558594 11.820312 30.546875 11.820312 30.527344 11.820312 L 30.433594 11.820312 C 30.34375 11.820312 30.253906 11.890625 30.164062 11.964844 C 30.128906 12.035156 30.089844 12.085938 30.050781 12.140625 C 30.011719 12.195312 29.972656 12.25 29.9375 12.320312 C 29.871094 12.460938 29.800781 12.605469 29.757812 12.816406 C 29.742188 12.882812 29.730469 12.9375 29.71875 12.992188 C 29.6875 13.125 29.660156 13.238281 29.644531 13.386719 L 29.644531 12.105469 L 29.261719 12.105469 Z M 29.261719 19.652344 "/>
<path style=" stroke:none;fill-rule:evenodd;fill:rgb(48.627451%,52.54902%,55.294118%);fill-opacity:1;" d="M 35.410156 19.652344 C 35.589844 19.441406 35.75 19.011719 35.882812 18.441406 L 35.546875 17.730469 C 35.453125 18.085938 35.34375 18.371094 35.230469 18.585938 C 35.09375 18.800781 34.957031 18.871094 34.777344 18.871094 C 34.664062 18.871094 34.550781 18.800781 34.460938 18.65625 C 34.371094 18.585938 34.28125 18.371094 34.210938 18.160156 C 34.144531 17.945312 34.097656 17.660156 34.054688 17.375 C 34.007812 17.089844 33.984375 16.804688 33.984375 16.449219 L 35.953125 16.449219 L 35.953125 16.023438 C 35.953125 15.382812 35.90625 14.8125 35.863281 14.316406 C 35.816406 13.816406 35.726562 13.390625 35.636719 13.035156 C 35.542969 12.679688 35.410156 12.464844 35.273438 12.25 C 35.117188 12.035156 34.980469 11.964844 34.796875 11.964844 C 34.617188 11.964844 34.460938 12.035156 34.300781 12.25 C 34.164062 12.464844 34.03125 12.75 33.917969 13.105469 C 33.804688 13.460938 33.714844 13.886719 33.644531 14.386719 C 33.578125 14.882812 33.554688 15.453125 33.554688 16.023438 C 33.554688 16.59375 33.578125 17.089844 33.644531 17.589844 C 33.714844 18.089844 33.78125 18.515625 33.894531 18.871094 C 34.007812 19.226562 34.121094 19.511719 34.277344 19.726562 C 34.4375 19.867188 34.617188 20.011719 34.800781 20.011719 C 35.023438 20.007812 35.230469 19.867188 35.410156 19.652344 Z M 35.320312 13.742188 C 35.453125 14.097656 35.523438 14.667969 35.523438 15.308594 L 34.007812 15.308594 C 34.03125 14.667969 34.121094 14.167969 34.257812 13.742188 C 34.390625 13.386719 34.574219 13.171875 34.800781 13.171875 C 35.023438 13.171875 35.183594 13.316406 35.320312 13.742188 Z M 35.320312 13.742188 "/>
<path style=" stroke:none;fill-rule:nonzero;fill:rgb(48.627451%,52.54902%,55.294118%);fill-opacity:1;" d="M 37.195312 13.242188 L 37.195312 17.800781 C 37.195312 18.011719 37.21875 18.226562 37.242188 18.371094 C 37.261719 18.511719 37.308594 18.65625 37.355469 18.726562 C 37.398438 18.796875 37.46875 18.867188 37.558594 18.867188 C 37.625 18.867188 37.671875 18.867188 37.738281 18.796875 C 37.773438 18.761719 37.800781 18.726562 37.828125 18.691406 C 37.855469 18.65625 37.886719 18.621094 37.917969 18.582031 L 37.941406 19.722656 C 37.875 19.792969 37.804688 19.863281 37.714844 19.9375 C 37.625 20.007812 37.558594 20.007812 37.46875 20.007812 C 37.332031 20.007812 37.195312 19.9375 37.128906 19.792969 C 37.039062 19.648438 36.96875 19.507812 36.925781 19.292969 C 36.878906 19.082031 36.832031 18.796875 36.832031 18.511719 C 36.8125 18.15625 36.8125 17.796875 36.8125 17.441406 L 36.8125 13.242188 L 36.292969 13.242188 L 36.292969 12.175781 L 36.8125 12.175781 L 36.8125 9.96875 L 37.21875 9.96875 L 37.21875 12.175781 L 37.941406 12.175781 L 37.941406 13.242188 Z M 37.195312 13.242188 "/>
<path style=" stroke:none;fill-rule:nonzero;fill:rgb(48.627451%,52.54902%,55.294118%);fill-opacity:1;" d="M 38.460938 8.546875 C 38.394531 8.6875 38.371094 8.902344 38.371094 9.1875 C 38.371094 9.472656 38.394531 9.683594 38.460938 9.828125 C 38.507812 10.039062 38.597656 10.113281 38.664062 10.113281 C 38.734375 10.113281 38.824219 9.96875 38.871094 9.828125 C 38.9375 9.683594 38.960938 9.472656 38.960938 9.1875 C 38.960938 8.972656 38.9375 8.761719 38.871094 8.546875 C 38.824219 8.332031 38.757812 8.257812 38.664062 8.257812 C 38.597656 8.261719 38.53125 8.332031 38.460938 8.546875 Z M 38.460938 8.546875 "/>
<path style=" stroke:none;fill-rule:nonzero;fill:rgb(48.627451%,52.54902%,55.294118%);fill-opacity:1;" d="M 38.867188 19.867188 L 38.867188 12.175781 L 38.460938 12.175781 L 38.460938 19.863281 L 38.867188 19.863281 Z M 38.867188 19.867188 "/>
<path style=" stroke:none;fill-rule:nonzero;fill:rgb(48.627451%,52.54902%,55.294118%);fill-opacity:1;" d="M 39.683594 13.957031 L 39.683594 12.105469 L 40.066406 12.105469 L 40.066406 13.386719 C 40.082031 13.238281 40.109375 13.121094 40.140625 12.992188 C 40.152344 12.9375 40.167969 12.882812 40.179688 12.816406 C 40.226562 12.605469 40.292969 12.460938 40.359375 12.320312 C 40.394531 12.25 40.433594 12.195312 40.472656 12.140625 C 40.515625 12.085938 40.554688 12.035156 40.585938 11.964844 C 40.679688 11.890625 40.769531 11.820312 40.859375 11.820312 C 41.015625 11.820312 41.152344 11.890625 41.265625 12.035156 C 41.378906 12.175781 41.46875 12.390625 41.558594 12.675781 C 41.628906 12.960938 41.695312 13.242188 41.71875 13.671875 C 41.761719 14.027344 41.761719 14.457031 41.761719 14.953125 L 41.761719 19.652344 L 41.355469 19.652344 L 41.355469 15.023438 C 41.355469 14.382812 41.3125 13.882812 41.21875 13.527344 C 41.128906 13.171875 40.996094 12.957031 40.789062 12.957031 C 40.65625 12.957031 40.542969 13.027344 40.453125 13.171875 C 40.359375 13.316406 40.269531 13.527344 40.226562 13.8125 C 40.15625 14.097656 40.113281 14.382812 40.089844 14.738281 C 40.066406 15.09375 40.042969 15.519531 40.042969 15.949219 L 40.042969 19.648438 L 39.636719 19.648438 L 39.636719 13.953125 L 39.683594 13.953125 Z M 39.683594 13.957031 "/>
<path style=" stroke:none;fill-rule:evenodd;fill:rgb(48.627451%,52.54902%,55.294118%);fill-opacity:1;" d="M 44.65625 22.714844 C 44.882812 22.003906 44.996094 20.933594 44.996094 19.507812 L 44.996094 12.175781 L 44.589844 12.175781 L 44.589844 13.457031 C 44.542969 13.242188 44.5 13.03125 44.429688 12.816406 C 44.394531 12.648438 44.332031 12.527344 44.273438 12.410156 C 44.257812 12.378906 44.242188 12.347656 44.226562 12.316406 C 44.136719 12.175781 44.070312 12.105469 43.980469 12.03125 C 43.886719 11.960938 43.820312 11.960938 43.730469 11.960938 C 43.550781 11.960938 43.367188 12.03125 43.210938 12.246094 C 43.050781 12.390625 42.917969 12.671875 42.804688 13.03125 C 42.691406 13.386719 42.601562 13.816406 42.53125 14.3125 C 42.464844 14.808594 42.441406 15.378906 42.441406 16.019531 C 42.441406 16.589844 42.464844 17.089844 42.53125 17.585938 C 42.601562 18.011719 42.691406 18.511719 42.804688 18.796875 C 42.917969 19.082031 43.050781 19.367188 43.210938 19.582031 C 43.367188 19.792969 43.550781 19.867188 43.730469 19.867188 C 43.886719 19.867188 44.046875 19.722656 44.207031 19.511719 C 44.363281 19.296875 44.5 18.941406 44.589844 18.441406 L 44.589844 19.441406 C 44.589844 19.796875 44.566406 20.222656 44.542969 20.582031 C 44.523438 20.9375 44.5 21.292969 44.410156 21.578125 C 44.316406 21.863281 44.226562 22.148438 44.113281 22.289062 C 44 22.503906 43.84375 22.574219 43.660156 22.574219 C 43.480469 22.574219 43.300781 22.433594 43.164062 22.21875 C 43.027344 22.003906 42.894531 21.648438 42.757812 21.222656 L 42.464844 22.289062 C 42.621094 22.859375 42.804688 23.214844 43.007812 23.429688 C 43.210938 23.640625 43.414062 23.785156 43.660156 23.785156 C 44.089844 23.78125 44.429688 23.425781 44.65625 22.714844 Z M 42.9375 17.089844 C 42.894531 16.804688 42.871094 16.449219 42.871094 16.023438 C 42.871094 15.800781 42.875 15.597656 42.882812 15.402344 C 42.886719 15.222656 42.894531 15.054688 42.894531 14.882812 C 42.9375 14.527344 43.007812 14.242188 43.074219 13.960938 C 43.140625 13.671875 43.230469 13.460938 43.34375 13.316406 C 43.457031 13.175781 43.570312 13.105469 43.707031 13.105469 C 43.84375 13.105469 43.957031 13.175781 44.070312 13.316406 C 44.183594 13.460938 44.273438 13.601562 44.339844 13.886719 C 44.429688 14.171875 44.476562 14.457031 44.519531 14.8125 C 44.566406 15.167969 44.589844 15.523438 44.589844 15.953125 C 44.589844 16.234375 44.558594 16.558594 44.539062 16.824219 C 44.53125 16.894531 44.527344 16.960938 44.519531 17.019531 C 44.5 17.304688 44.429688 17.589844 44.363281 17.875 C 44.292969 18.160156 44.183594 18.371094 44.089844 18.515625 C 44 18.65625 43.863281 18.730469 43.730469 18.730469 C 43.617188 18.730469 43.503906 18.65625 43.390625 18.515625 C 43.277344 18.371094 43.1875 18.160156 43.117188 17.945312 C 43.050781 17.730469 42.984375 17.445312 42.9375 17.089844 Z M 42.9375 17.089844 "/>
<path style=" stroke:none;fill-rule:nonzero;fill:rgb(48.627451%,52.54902%,55.294118%);fill-opacity:1;" d="M 23.878906 31.613281 C 23.789062 31.257812 23.699219 31.046875 23.609375 30.902344 C 23.515625 30.761719 23.402344 30.691406 23.269531 30.691406 C 23.132812 30.691406 23.019531 30.761719 22.90625 30.902344 C 22.792969 31.046875 22.726562 31.257812 22.65625 31.542969 C 22.589844 31.828125 22.542969 32.113281 22.5 32.46875 C 22.453125 32.824219 22.453125 33.179688 22.453125 33.609375 C 22.453125 34.039062 22.476562 34.394531 22.523438 34.75 C 22.566406 35.105469 22.613281 35.390625 22.679688 35.675781 C 22.746094 35.960938 22.839844 36.171875 22.929688 36.316406 C 23.019531 36.457031 23.132812 36.527344 23.269531 36.527344 C 23.539062 36.527344 23.742188 36.242188 23.878906 35.605469 L 24.171875 36.527344 C 24.058594 36.957031 23.921875 37.242188 23.765625 37.453125 C 23.605469 37.667969 23.449219 37.738281 23.269531 37.738281 C 23.085938 37.738281 22.90625 37.667969 22.75 37.453125 C 22.589844 37.242188 22.453125 36.957031 22.339844 36.597656 C 22.230469 36.242188 22.136719 35.816406 22.09375 35.320312 C 22.046875 34.820312 22.003906 34.320312 22.003906 33.679688 C 22.003906 33.113281 22.023438 32.542969 22.09375 32.042969 C 22.160156 31.546875 22.226562 31.121094 22.339844 30.765625 C 22.453125 30.40625 22.589844 30.121094 22.75 29.910156 C 22.90625 29.695312 23.066406 29.625 23.269531 29.625 C 23.449219 29.625 23.628906 29.695312 23.789062 29.910156 C 23.945312 30.121094 24.082031 30.40625 24.21875 30.835938 Z M 23.878906 31.613281 "/>
<path style=" stroke:none;fill-rule:nonzero;fill:rgb(48.627451%,52.54902%,55.294118%);fill-opacity:1;" d="M 25.101562 24.992188 L 24.691406 24.992188 L 24.691406 37.382812 L 25.101562 37.382812 Z M 25.101562 24.992188 "/>
<path style=" stroke:none;fill-rule:evenodd;fill:rgb(48.627451%,52.54902%,55.294118%);fill-opacity:1;" d="M 25.753906 33.539062 C 25.753906 32.96875 25.777344 32.398438 25.847656 31.902344 C 25.914062 31.402344 26.003906 30.976562 26.117188 30.621094 C 26.230469 30.261719 26.367188 29.976562 26.523438 29.765625 C 26.683594 29.550781 26.863281 29.480469 27.042969 29.480469 C 27.226562 29.480469 27.40625 29.550781 27.5625 29.765625 C 27.722656 29.976562 27.859375 30.261719 27.972656 30.621094 C 28.082031 30.976562 28.175781 31.402344 28.242188 31.902344 C 28.308594 32.398438 28.332031 32.96875 28.332031 33.539062 C 28.332031 34.105469 28.308594 34.675781 28.242188 35.175781 C 28.175781 35.671875 28.082031 36.097656 27.972656 36.453125 C 27.859375 36.8125 27.722656 37.097656 27.5625 37.308594 C 27.40625 37.523438 27.226562 37.59375 27.042969 37.59375 C 26.863281 37.59375 26.683594 37.523438 26.523438 37.308594 C 26.367188 37.097656 26.230469 36.8125 26.117188 36.453125 C 26.003906 36.097656 25.914062 35.671875 25.847656 35.175781 C 25.777344 34.675781 25.753906 34.105469 25.753906 33.539062 Z M 26.183594 33.539062 C 26.183594 33.964844 26.207031 34.320312 26.253906 34.675781 C 26.296875 35.03125 26.34375 35.320312 26.433594 35.601562 C 26.523438 35.886719 26.59375 36.027344 26.703125 36.242188 C 26.816406 36.386719 26.929688 36.457031 27.066406 36.457031 C 27.203125 36.457031 27.316406 36.386719 27.429688 36.242188 C 27.542969 36.101562 27.632812 35.886719 27.699219 35.601562 C 27.769531 35.316406 27.835938 35.03125 27.882812 34.675781 C 27.925781 34.320312 27.949219 33.964844 27.949219 33.539062 C 27.949219 33.109375 27.925781 32.753906 27.882812 32.398438 C 27.835938 32.042969 27.789062 31.757812 27.699219 31.472656 C 27.640625 31.226562 27.566406 31.085938 27.472656 30.917969 L 27.441406 30.859375 L 27.429688 30.832031 C 27.316406 30.621094 27.203125 30.621094 27.066406 30.621094 C 26.929688 30.621094 26.816406 30.691406 26.703125 30.832031 C 26.59375 30.976562 26.5 31.1875 26.433594 31.472656 C 26.367188 31.757812 26.296875 32.042969 26.253906 32.398438 C 26.207031 32.753906 26.183594 33.109375 26.183594 33.539062 Z M 26.183594 33.539062 "/>
<path style=" stroke:none;fill-rule:nonzero;fill:rgb(48.627451%,52.54902%,55.294118%);fill-opacity:1;" d="M 31.113281 35.53125 L 31.183594 35.53125 L 31.183594 29.832031 L 30.773438 29.832031 L 30.773438 33.535156 C 30.773438 33.960938 30.753906 34.390625 30.730469 34.746094 C 30.707031 35.101562 30.660156 35.386719 30.59375 35.671875 C 30.550781 35.957031 30.457031 36.167969 30.367188 36.3125 C 30.277344 36.453125 30.164062 36.527344 30.027344 36.527344 C 29.824219 36.527344 29.691406 36.3125 29.597656 35.957031 C 29.507812 35.601562 29.464844 35.101562 29.464844 34.460938 L 29.464844 29.832031 L 29.058594 29.832031 L 29.058594 34.53125 C 29.058594 35.03125 29.058594 35.457031 29.101562 35.8125 C 29.125 36.238281 29.191406 36.523438 29.261719 36.808594 C 29.351562 37.09375 29.441406 37.308594 29.554688 37.449219 C 29.667969 37.59375 29.804688 37.664062 29.960938 37.664062 C 30.050781 37.664062 30.140625 37.59375 30.234375 37.519531 C 30.265625 37.449219 30.304688 37.398438 30.347656 37.34375 C 30.386719 37.289062 30.425781 37.234375 30.457031 37.164062 C 30.527344 37.023438 30.59375 36.808594 30.640625 36.667969 C 30.652344 36.601562 30.667969 36.546875 30.679688 36.488281 C 30.710938 36.359375 30.738281 36.246094 30.753906 36.097656 L 30.753906 37.378906 L 31.113281 37.378906 Z M 31.113281 35.53125 "/>
<path style=" stroke:none;fill-rule:evenodd;fill:rgb(48.627451%,52.54902%,55.294118%);fill-opacity:1;" d="M 33.894531 36.027344 C 33.804688 36.453125 33.691406 36.8125 33.53125 37.167969 C 33.375 37.453125 33.171875 37.59375 32.96875 37.59375 C 32.789062 37.59375 32.628906 37.523438 32.492188 37.308594 C 32.335938 37.097656 32.222656 36.8125 32.109375 36.453125 C 31.996094 36.097656 31.90625 35.671875 31.859375 35.175781 C 31.792969 34.675781 31.769531 34.175781 31.769531 33.539062 C 31.769531 32.894531 31.792969 32.398438 31.859375 31.902344 C 31.925781 31.402344 32.019531 30.976562 32.132812 30.621094 C 32.242188 30.261719 32.378906 29.976562 32.539062 29.765625 C 32.695312 29.550781 32.875 29.480469 33.058594 29.480469 C 33.238281 29.480469 33.398438 29.621094 33.554688 29.835938 C 33.714844 30.046875 33.828125 30.40625 33.941406 30.832031 L 33.941406 24.992188 L 34.347656 24.992188 L 34.347656 37.382812 L 33.941406 37.382812 L 33.941406 36.03125 L 33.894531 36.03125 Z M 33.894531 33.539062 C 33.894531 33.109375 33.871094 32.753906 33.828125 32.398438 C 33.78125 32.042969 33.738281 31.757812 33.648438 31.472656 C 33.589844 31.226562 33.511719 31.085938 33.421875 30.917969 C 33.40625 30.890625 33.390625 30.859375 33.375 30.832031 C 33.261719 30.691406 33.148438 30.621094 33.011719 30.621094 C 32.878906 30.621094 32.765625 30.691406 32.652344 30.832031 C 32.539062 30.976562 32.449219 31.1875 32.378906 31.472656 C 32.3125 31.757812 32.246094 32.042969 32.199219 32.398438 C 32.152344 32.753906 32.132812 33.109375 32.132812 33.539062 C 32.132812 33.964844 32.152344 34.324219 32.199219 34.679688 C 32.246094 35.035156 32.289062 35.320312 32.378906 35.605469 C 32.46875 35.890625 32.539062 36.03125 32.652344 36.246094 C 32.765625 36.386719 32.878906 36.457031 33.011719 36.457031 C 33.148438 36.457031 33.261719 36.386719 33.375 36.246094 C 33.488281 36.101562 33.578125 35.890625 33.648438 35.605469 C 33.714844 35.320312 33.78125 35.035156 33.828125 34.679688 C 33.871094 34.320312 33.894531 33.964844 33.894531 33.539062 Z M 33.894531 33.539062 "/>
<path style=" stroke:none;fill-rule:nonzero;fill:rgb(7.843137%,62.745098%,86.27451%);fill-opacity:1;" d="M 5.429688 21.289062 C 5.589844 21.289062 5.746094 21.359375 5.746094 21.359375 L 5.746094 23.070312 C 5.746094 23.070312 5.589844 23.210938 5.429688 23.210938 C 5.203125 23.28125 5.089844 23 5.089844 23 L 5.023438 22.785156 C 5 22.644531 4.976562 22.5 4.976562 22.289062 C 4.976562 22.003906 5.023438 21.71875 5.089844 21.574219 C 5.089844 21.574219 5.179688 21.289062 5.429688 21.289062 Z M 5.429688 21.289062 "/>
<path style=" stroke:none;fill-rule:nonzero;fill:rgb(7.843137%,62.745098%,86.27451%);fill-opacity:1;" d="M 8.054688 19.082031 C 7.894531 19.082031 7.78125 19.296875 7.714844 19.652344 C 7.667969 19.863281 7.644531 20.152344 7.625 20.507812 L 8.460938 20.507812 C 8.460938 20.152344 8.4375 19.863281 8.390625 19.652344 C 8.324219 19.296875 8.210938 19.082031 8.054688 19.082031 Z M 8.054688 19.082031 "/>
<path style=" stroke:none;fill-rule:nonzero;fill:rgb(7.843137%,62.745098%,86.27451%);fill-opacity:1;" d="M 12.460938 19.582031 C 12.53125 19.226562 12.640625 19.082031 12.800781 19.082031 C 12.960938 19.082031 13.070312 19.296875 13.140625 19.582031 C 13.207031 19.9375 13.253906 20.4375 13.253906 21.078125 C 13.253906 21.71875 13.207031 22.21875 13.140625 22.574219 C 13.070312 22.929688 12.960938 23.070312 12.800781 23.070312 C 12.640625 23.070312 12.53125 22.929688 12.460938 22.574219 C 12.394531 22.21875 12.347656 21.71875 12.347656 21.078125 C 12.347656 20.4375 12.394531 19.9375 12.460938 19.582031 Z M 12.460938 19.582031 "/>
<path style=" stroke:none;fill-rule:nonzero;fill:rgb(7.843137%,62.745098%,86.27451%);fill-opacity:1;" d="M 17.503906 19.082031 C 17.34375 19.082031 17.230469 19.296875 17.164062 19.652344 C 17.117188 19.863281 17.097656 20.152344 17.074219 20.507812 L 17.910156 20.507812 C 17.910156 20.152344 17.886719 19.863281 17.84375 19.652344 C 17.773438 19.296875 17.660156 19.082031 17.503906 19.082031 Z M 17.503906 19.082031 "/>
<path style=" stroke:none;fill-rule:evenodd;fill:rgb(7.843137%,62.745098%,86.27451%);fill-opacity:1;" d="M 14.203125 7.335938 C 14.746094 6.550781 15.355469 6.125 15.988281 6.125 C 18.40625 6.125 20.375 12.390625 20.351562 20.078125 C 20.351562 27.769531 18.386719 34.035156 15.964844 34.035156 C 15.671875 34.035156 15.378906 33.894531 15.105469 33.75 C 14.566406 36.882812 13.503906 38.949219 12.304688 38.949219 C 11.804688 38.949219 11.332031 38.59375 10.902344 37.949219 C 10.335938 42.082031 9.046875 45 7.535156 45 C 5.949219 45 4.617188 41.867188 4.097656 37.453125 C 3.871094 37.59375 3.644531 37.664062 3.394531 37.664062 C 1.519531 37.664062 0.00390625 32.824219 0.00390625 26.84375 C 0.00390625 22.855469 0.683594 19.292969 1.699219 17.445312 C 1.496094 15.878906 1.382812 14.242188 1.382812 12.460938 C 1.382812 5.554688 3.148438 0 5.339844 0 C 6.628906 0 7.757812 1.921875 8.480469 4.914062 C 9.136719 2.777344 10.042969 1.421875 11.058594 1.421875 C 12.394531 1.425781 13.570312 3.847656 14.203125 7.335938 Z M 3.6875 24.210938 C 4.117188 24.210938 4.367188 23.496094 4.367188 22.359375 C 4.367188 21.289062 4.074219 20.863281 3.824219 20.792969 L 3.78125 20.722656 C 3.574219 20.507812 3.394531 20.292969 3.394531 19.867188 C 3.394531 19.511719 3.507812 19.226562 3.667969 19.226562 C 3.824219 19.226562 4.050781 19.4375 4.1875 19.652344 C 4.1875 19.652344 4.210938 19.722656 4.230469 19.582031 C 4.253906 19.511719 4.324219 18.941406 4.324219 18.871094 C 4.324219 18.800781 4.324219 18.726562 4.300781 18.726562 C 4.164062 18.441406 3.9375 18.226562 3.710938 18.226562 L 3.667969 18.226562 C 3.28125 18.226562 3.011719 18.941406 3.011719 20.007812 C 3.011719 21.074219 3.304688 21.503906 3.578125 21.71875 L 3.621094 21.789062 C 3.824219 21.929688 4.007812 22.144531 4.007812 22.570312 C 4.007812 23 3.894531 23.28125 3.710938 23.28125 C 3.644531 23.28125 3.417969 23.28125 3.167969 22.785156 C 3.160156 22.75 3.148438 22.730469 3.136719 22.714844 C 3.125 22.695312 3.113281 22.679688 3.101562 22.644531 C 3.101562 22.644531 3.078125 22.574219 3.054688 22.714844 L 2.964844 23.425781 C 2.941406 23.496094 2.964844 23.570312 2.964844 23.570312 C 2.988281 23.605469 3.003906 23.640625 3.023438 23.675781 C 3.039062 23.710938 3.054688 23.746094 3.078125 23.785156 C 3.28125 24.136719 3.484375 24.210938 3.6875 24.210938 Z M 5.996094 23.855469 C 6.039062 23.855469 6.085938 23.785156 6.085938 23.785156 C 6.109375 23.785156 6.109375 23.640625 6.085938 23.640625 L 6.085938 20.222656 C 6.085938 19.511719 6.039062 18.941406 5.90625 18.585938 C 5.792969 18.230469 5.589844 18.085938 5.363281 18.085938 C 5.273438 18.085938 5.136719 18.085938 5.046875 18.15625 C 5.046875 18.15625 4.796875 18.300781 4.683594 18.585938 C 4.683594 18.585938 4.660156 18.65625 4.683594 18.726562 L 4.773438 19.4375 C 4.796875 19.507812 4.820312 19.507812 4.820312 19.507812 L 4.84375 19.507812 C 5.070312 19.152344 5.363281 19.152344 5.363281 19.152344 C 5.496094 19.152344 5.589844 19.222656 5.65625 19.367188 C 5.722656 19.507812 5.746094 19.722656 5.746094 20.222656 L 5.746094 20.363281 C 5.632812 20.292969 5.542969 20.292969 5.542969 20.292969 L 5.363281 20.292969 C 5.25 20.292969 5.160156 20.363281 5.070312 20.4375 C 4.976562 20.507812 4.886719 20.648438 4.820312 20.792969 C 4.730469 21.003906 4.683594 21.21875 4.640625 21.433594 C 4.59375 21.644531 4.570312 21.933594 4.570312 22.289062 C 4.570312 22.644531 4.570312 22.929688 4.617188 23.140625 C 4.660156 23.355469 4.707031 23.570312 4.773438 23.710938 C 4.84375 23.925781 4.933594 23.996094 5.023438 24.066406 C 5.113281 24.136719 5.226562 24.136719 5.339844 24.136719 C 5.453125 24.136719 5.589844 24.136719 5.703125 24.066406 C 5.75 24.035156 5.804688 23.992188 5.855469 23.953125 C 5.914062 23.898438 5.96875 23.855469 5.996094 23.855469 Z M 6.855469 24.066406 C 6.855469 24.066406 6.878906 23.996094 6.878906 23.925781 L 6.878906 15.949219 C 6.878906 15.878906 6.878906 15.808594 6.855469 15.808594 L 6.539062 15.808594 C 6.539062 15.808594 6.515625 15.878906 6.515625 15.949219 L 6.515625 23.925781 C 6.515625 23.996094 6.515625 24.066406 6.539062 24.066406 Z M 8.800781 21.433594 C 8.800781 21.433594 8.84375 21.433594 8.84375 21.363281 C 8.84375 21.355469 8.84375 21.339844 8.84375 21.316406 C 8.847656 21.132812 8.859375 20.484375 8.800781 19.726562 C 8.753906 19.371094 8.6875 19.015625 8.640625 18.871094 C 8.574219 18.585938 8.480469 18.371094 8.414062 18.300781 C 8.324219 18.160156 8.210938 18.089844 8.074219 18.089844 C 7.941406 18.089844 7.804688 18.160156 7.691406 18.300781 C 7.578125 18.445312 7.488281 18.65625 7.417969 18.945312 C 7.351562 19.230469 7.308594 19.585938 7.261719 19.941406 C 7.238281 20.296875 7.214844 20.726562 7.214844 21.152344 C 7.214844 21.578125 7.214844 22.003906 7.261719 22.363281 C 7.308594 22.71875 7.375 23.003906 7.441406 23.285156 C 7.511719 23.570312 7.621094 23.785156 7.734375 23.929688 C 7.847656 24.070312 8.007812 24.140625 8.164062 24.140625 C 8.503906 24.140625 8.683594 23.929688 8.753906 23.785156 C 8.753906 23.761719 8.757812 23.746094 8.757812 23.730469 C 8.761719 23.699219 8.769531 23.664062 8.753906 23.570312 L 8.6875 22.859375 C 8.664062 22.71875 8.640625 22.789062 8.640625 22.789062 C 8.574219 22.933594 8.4375 23.074219 8.164062 23.074219 C 7.984375 23.074219 7.847656 22.933594 7.757812 22.648438 C 7.667969 22.433594 7.625 22.007812 7.625 21.4375 L 8.800781 21.4375 Z M 9.148438 23.605469 C 9.167969 23.640625 9.183594 23.675781 9.207031 23.710938 C 9.375 24.007812 9.542969 24.105469 9.726562 24.214844 C 9.761719 24.234375 9.800781 24.257812 9.839844 24.28125 C 10.269531 24.28125 10.515625 23.570312 10.515625 22.429688 C 10.515625 21.359375 10.222656 21.003906 9.953125 20.71875 L 9.90625 20.648438 C 9.703125 20.4375 9.523438 20.222656 9.523438 19.792969 C 9.523438 19.4375 9.636719 19.152344 9.792969 19.152344 C 9.953125 19.152344 10.179688 19.367188 10.3125 19.578125 C 10.3125 19.578125 10.335938 19.648438 10.359375 19.507812 C 10.382812 19.4375 10.449219 18.867188 10.449219 18.796875 C 10.449219 18.726562 10.449219 18.65625 10.425781 18.65625 C 10.292969 18.371094 10.066406 18.15625 9.839844 18.15625 L 9.792969 18.15625 C 9.410156 18.15625 9.136719 18.867188 9.136719 19.9375 C 9.136719 21.003906 9.433594 21.429688 9.703125 21.644531 L 9.75 21.714844 C 9.953125 21.859375 10.132812 22.070312 10.132812 22.5 C 10.132812 22.925781 10.019531 23.210938 9.839844 23.210938 C 9.773438 23.210938 9.546875 23.210938 9.296875 22.710938 C 9.285156 22.675781 9.273438 22.660156 9.261719 22.640625 C 9.25 22.625 9.242188 22.605469 9.230469 22.570312 C 9.230469 22.570312 9.207031 22.5 9.183594 22.640625 L 9.09375 23.355469 C 9.070312 23.425781 9.09375 23.496094 9.09375 23.496094 C 9.117188 23.535156 9.132812 23.570312 9.148438 23.605469 Z M 11.828125 19.226562 C 11.828125 19.226562 11.875 19.226562 11.875 19.082031 L 11.917969 18.441406 C 11.917969 18.371094 11.898438 18.296875 11.875 18.296875 L 11.445312 18.296875 C 11.445312 18.226562 11.46875 17.871094 11.511719 17.445312 C 11.535156 17.230469 11.578125 17.089844 11.601562 17.019531 C 11.621094 16.90625 11.636719 16.882812 11.667969 16.84375 C 11.675781 16.832031 11.683594 16.820312 11.695312 16.804688 C 11.738281 16.734375 11.785156 16.734375 11.828125 16.734375 L 11.917969 16.734375 C 11.964844 16.804688 11.988281 16.804688 11.988281 16.804688 C 12.007812 16.804688 12.03125 16.804688 12.03125 16.734375 L 12.125 15.949219 C 12.125 15.878906 12.101562 15.808594 12.101562 15.808594 C 12.078125 15.808594 12.0625 15.789062 12.042969 15.773438 C 12.027344 15.753906 12.011719 15.738281 11.988281 15.738281 C 11.941406 15.667969 11.898438 15.667969 11.828125 15.667969 C 11.625 15.667969 11.445312 15.878906 11.332031 16.234375 C 11.21875 16.660156 11.152344 17.160156 11.105469 17.945312 L 11.082031 18.230469 L 10.8125 18.230469 C 10.8125 18.230469 10.765625 18.230469 10.765625 18.371094 L 10.722656 19.15625 C 10.722656 19.226562 10.742188 19.300781 10.765625 19.300781 L 11.039062 19.300781 L 10.765625 23.929688 C 10.746094 24.285156 10.722656 24.640625 10.699219 24.851562 C 10.652344 25.066406 10.632812 25.207031 10.609375 25.351562 C 10.5625 25.492188 10.539062 25.566406 10.496094 25.636719 C 10.449219 25.707031 10.40625 25.707031 10.359375 25.707031 L 10.269531 25.707031 C 10.257812 25.707031 10.246094 25.6875 10.234375 25.671875 C 10.222656 25.652344 10.214844 25.636719 10.203125 25.636719 C 10.203125 25.636719 10.179688 25.636719 10.15625 25.707031 C 10.132812 25.777344 10.066406 26.417969 10.066406 26.492188 C 10.066406 26.5625 10.066406 26.632812 10.085938 26.632812 C 10.109375 26.632812 10.128906 26.652344 10.144531 26.667969 C 10.160156 26.6875 10.179688 26.703125 10.199219 26.703125 C 10.269531 26.773438 10.335938 26.773438 10.382812 26.773438 C 10.496094 26.773438 10.585938 26.703125 10.675781 26.632812 C 10.765625 26.488281 10.832031 26.347656 10.902344 26.132812 C 10.96875 25.847656 11.015625 25.636719 11.058594 25.277344 C 11.105469 24.921875 11.148438 24.496094 11.171875 24 L 11.445312 19.226562 Z M 13.613281 22.289062 C 13.636719 21.933594 13.660156 21.574219 13.660156 21.078125 C 13.660156 20.652344 13.660156 20.222656 13.613281 19.867188 C 13.59375 19.511719 13.523438 19.226562 13.457031 18.941406 C 13.386719 18.65625 13.296875 18.441406 13.183594 18.300781 C 13.070312 18.15625 12.9375 18.085938 12.800781 18.085938 C 12.640625 18.085938 12.53125 18.15625 12.417969 18.300781 C 12.304688 18.441406 12.210938 18.65625 12.144531 18.941406 C 12.078125 19.15625 12.03125 19.511719 11.988281 19.867188 C 11.964844 20.222656 11.941406 20.652344 11.941406 21.078125 C 11.941406 21.503906 11.941406 21.933594 11.988281 22.289062 C 12.007812 22.644531 12.078125 22.929688 12.144531 23.210938 C 12.210938 23.496094 12.304688 23.710938 12.417969 23.855469 C 12.53125 23.996094 12.640625 24.066406 12.800781 24.066406 C 12.960938 24.066406 13.070312 23.996094 13.183594 23.855469 C 13.296875 23.710938 13.386719 23.496094 13.457031 23.210938 C 13.523438 23 13.570312 22.644531 13.613281 22.289062 Z M 14.925781 19.296875 C 14.949219 19.367188 14.972656 19.296875 14.972656 19.226562 C 14.972656 19.203125 14.976562 19.171875 14.980469 19.140625 C 15.007812 18.898438 15.054688 18.5 14.992188 18.371094 C 14.992188 18.300781 14.972656 18.230469 14.972656 18.230469 C 14.960938 18.230469 14.941406 18.21875 14.917969 18.207031 C 14.871094 18.1875 14.8125 18.160156 14.769531 18.160156 C 14.652344 18.097656 14.570312 18.191406 14.503906 18.265625 C 14.496094 18.277344 14.484375 18.292969 14.472656 18.300781 C 14.460938 18.332031 14.445312 18.363281 14.429688 18.394531 C 14.371094 18.511719 14.304688 18.632812 14.269531 18.800781 L 14.269531 18.375 C 14.269531 18.304688 14.269531 18.230469 14.25 18.230469 L 13.957031 18.230469 C 13.957031 18.230469 13.933594 18.300781 13.933594 18.375 L 13.933594 23.929688 C 13.933594 24 13.957031 24.070312 13.976562 24.070312 L 14.292969 24.070312 C 14.316406 24.070312 14.339844 24 14.339844 23.929688 L 14.339844 21.152344 C 14.339844 20.726562 14.363281 20.367188 14.386719 20.152344 C 14.429688 19.867188 14.453125 19.726562 14.5 19.585938 C 14.515625 19.46875 14.566406 19.402344 14.605469 19.339844 C 14.617188 19.328125 14.625 19.3125 14.632812 19.300781 C 14.679688 19.230469 14.746094 19.230469 14.792969 19.230469 C 14.859375 19.226562 14.925781 19.296875 14.925781 19.296875 Z M 16.035156 24.136719 C 16.214844 24.136719 16.394531 23.996094 16.53125 23.851562 C 16.53125 23.851562 16.5625 23.800781 16.574219 23.828125 L 16.484375 23.140625 C 16.464844 22.996094 16.441406 23.070312 16.441406 23.070312 C 16.394531 23.140625 16.351562 23.210938 16.28125 23.210938 C 16.238281 23.28125 16.167969 23.28125 16.101562 23.28125 C 15.921875 23.28125 15.785156 23.070312 15.695312 22.785156 C 15.582031 22.5 15.535156 22.003906 15.535156 21.289062 C 15.535156 20.71875 15.582031 20.222656 15.671875 19.863281 C 15.761719 19.507812 15.875 19.296875 16.054688 19.296875 C 16.191406 19.296875 16.304688 19.296875 16.417969 19.4375 C 16.417969 19.4375 16.441406 19.507812 16.464844 19.367188 C 16.507812 19.082031 16.53125 18.871094 16.554688 18.585938 C 16.554688 18.515625 16.53125 18.441406 16.53125 18.441406 C 16.488281 18.371094 16.394531 18.296875 16.304688 18.226562 C 16.214844 18.15625 16.125 18.15625 16.035156 18.15625 C 15.898438 18.15625 15.761719 18.226562 15.648438 18.371094 C 15.535156 18.515625 15.445312 18.726562 15.378906 19.011719 C 15.289062 19.226562 15.242188 19.582031 15.199219 19.9375 C 15.152344 20.292969 15.128906 20.722656 15.128906 21.148438 C 15.128906 22.074219 15.199219 22.785156 15.355469 23.355469 C 15.492188 23.855469 15.738281 24.136719 16.035156 24.136719 Z M 18.25 21.433594 C 18.25 21.433594 18.296875 21.433594 18.296875 21.363281 C 18.296875 21.355469 18.296875 21.335938 18.296875 21.304688 C 18.304688 21.105469 18.328125 20.46875 18.25 19.722656 C 18.203125 19.367188 18.136719 19.011719 18.089844 18.871094 C 18.023438 18.585938 17.933594 18.371094 17.867188 18.300781 C 17.773438 18.15625 17.660156 18.085938 17.527344 18.085938 C 17.390625 18.085938 17.253906 18.15625 17.140625 18.300781 C 17.027344 18.441406 16.9375 18.65625 16.871094 18.941406 C 16.804688 19.226562 16.757812 19.582031 16.710938 19.9375 C 16.691406 20.292969 16.667969 20.722656 16.667969 21.148438 C 16.667969 21.574219 16.667969 22.003906 16.710938 22.359375 C 16.757812 22.714844 16.824219 23 16.894531 23.285156 C 16.960938 23.570312 17.074219 23.785156 17.1875 23.925781 C 17.300781 24.070312 17.457031 24.140625 17.617188 24.140625 C 17.957031 24.140625 18.136719 23.925781 18.203125 23.785156 C 18.203125 23.761719 18.207031 23.742188 18.210938 23.726562 C 18.214844 23.695312 18.21875 23.664062 18.203125 23.570312 L 18.136719 22.859375 C 18.113281 22.714844 18.089844 22.789062 18.089844 22.789062 C 18.023438 22.929688 17.886719 23.074219 17.617188 23.074219 C 17.4375 23.074219 17.300781 22.929688 17.210938 22.648438 C 17.117188 22.433594 17.074219 22.003906 17.074219 21.4375 L 18.25 21.4375 Z M 18.25 21.433594 "/>
</g>
</svg>
